<svg width="1030" height="295" viewBox="0 0 1030 295" fill="none" xmlns="http://www.w3.org/2000/svg">
<path d="M360.96 83.35C360.96 89.95 360.86 96.3 360.66 102.4C360.46 108.5 360.16 113.65 359.76 117.85C359.66 119.05 359.26 120.9 358.56 123.4C357.86 125.8 356.96 128.25 355.86 130.75C354.86 133.15 353.66 135.25 352.26 137.05C350.96 138.85 349.61 139.75 348.21 139.75C347.51 139.75 346.71 139.5 345.81 139C345.01 138.5 344.61 137.7 344.61 136.6C344.61 136.4 344.76 135.8 345.06 134.8C345.46 133.7 345.76 133 345.96 132.7C346.56 128.9 346.96 123.85 347.16 117.55C347.46 111.25 347.61 104.5 347.61 97.3C347.71 90 347.71 82.6 347.61 75.1C347.61 67.5 347.61 60.5 347.61 54.1C347.61 53.4 347.21 52.9 346.41 52.6C345.61 52.2 344.66 51.85 343.56 51.55C342.56 51.25 341.46 50.95 340.26 50.65C339.16 50.35 338.31 49.95 337.71 49.45C337.41 48.05 337.31 46.75 337.41 45.55C337.61 44.35 338.21 43.5 339.21 43C340.61 42.3 342.26 41.8 344.16 41.5C346.16 41.1 347.96 40.95 349.56 41.05C351.46 41.15 353.36 41.5 355.26 42.1C357.16 42.7 358.86 43.85 360.36 45.55C361.06 46.45 362.01 47.95 363.21 50.05C364.51 52.05 365.91 54.4 367.41 57.1C369.01 59.7 370.61 62.4 372.21 65.2C373.91 68 375.51 70.55 377.01 72.85C378.51 75.15 379.86 77.05 381.06 78.55C382.26 80.05 383.16 80.8 383.76 80.8C384.56 80.8 385.81 79.8 387.51 77.8C389.31 75.8 391.21 73.4 393.21 70.6C395.31 67.8 397.36 64.9 399.36 61.9C401.46 58.9 403.21 56.4 404.61 54.4C405.81 52.9 406.81 51.35 407.61 49.75C408.41 48.05 409.21 46.5 410.01 45.1C410.91 43.6 411.91 42.4 413.01 41.5C414.21 40.6 415.76 40.15 417.66 40.15C419.16 40.15 420.31 40.7 421.11 41.8C421.91 42.9 422.46 44.1 422.76 45.4C423.86 49.9 424.31 54.75 424.11 59.95C424.01 65.15 423.96 70.75 423.96 76.75C423.96 80.05 423.91 82.85 423.81 85.15C423.81 87.45 423.76 89.75 423.66 92.05C423.66 94.35 423.61 96.95 423.51 99.85C423.41 102.65 423.31 106.25 423.21 110.65C423.11 112.75 423.01 115.15 422.91 117.85C422.81 120.55 422.56 123.3 422.16 126.1C421.86 128.8 421.31 131.4 420.51 133.9C419.81 136.4 418.76 138.55 417.36 140.35C416.86 140.95 416.26 141.25 415.56 141.25C414.46 141.25 413.56 140.35 412.86 138.55C412.16 136.75 411.61 134.7 411.21 132.4C410.91 130.1 410.66 127.9 410.46 125.8C410.36 123.7 410.31 122.3 410.31 121.6C409.71 112.5 409.61 103.35 410.01 94.15C410.41 84.95 410.31 75.85 409.71 66.85C408.11 69.85 406.11 73.1 403.71 76.6C401.31 80 398.86 83.2 396.36 86.2C393.86 89.2 391.41 91.7 389.01 93.7C386.61 95.6 384.61 96.55 383.01 96.55C381.21 96.55 379.46 95.95 377.76 94.75C376.06 93.55 374.46 92.1 372.96 90.4C371.56 88.7 370.31 86.95 369.21 85.15C368.11 83.25 367.21 81.65 366.51 80.35C365.71 78.95 364.76 77.5 363.66 76C362.56 74.4 361.66 72.8 360.96 71.2V83.35ZM486.673 123.85C486.573 121.95 486.473 120.1 486.373 118.3C486.273 116.5 486.223 115.05 486.223 113.95C486.223 111.25 486.173 108.3 486.073 105.1C485.973 101.9 485.873 98.25 485.773 94.15C485.773 90.05 485.723 85.4 485.623 80.2C485.523 75 485.473 69 485.473 62.2C485.473 61.2 485.373 59.85 485.173 58.15C484.973 56.35 484.473 54.45 483.673 52.45C481.373 52.45 479.573 52.5 478.273 52.6C476.973 52.6 475.473 52.55 473.773 52.45C473.073 52.45 472.273 52.2 471.373 51.7C470.473 51.2 469.573 50.6 468.673 49.9C467.873 49.1 467.173 48.3 466.573 47.5C466.073 46.6 465.823 45.75 465.823 44.95C465.823 44.55 466.023 44.2 466.423 43.9C466.923 43.6 467.523 43.4 468.223 43.3C469.023 43.1 469.873 43 470.773 43C471.673 42.9 472.573 42.8 473.473 42.7C474.373 42.6 476.323 42.45 479.323 42.25C482.423 42.05 485.723 41.85 489.223 41.65C492.823 41.45 496.123 41.3 499.123 41.2C502.223 41 504.223 40.9 505.123 40.9C506.623 40.9 508.223 41.2 509.923 41.8C511.723 42.3 512.623 43 512.623 43.9C512.623 45 512.373 46.05 511.873 47.05C511.473 48.05 510.873 49 510.073 49.9C509.373 50.7 508.573 51.35 507.673 51.85C506.873 52.35 506.123 52.6 505.423 52.6C504.123 52.5 502.723 52.35 501.223 52.15C499.723 51.95 497.623 51.95 494.923 52.15C496.323 54.45 497.423 56.95 498.223 59.65C499.023 62.25 499.423 64.95 499.423 67.75C499.423 73.05 499.423 78.05 499.423 82.75C499.423 87.35 499.323 91.75 499.123 95.95C499.023 100.05 498.823 104 498.523 107.8C498.323 111.6 498.023 115.35 497.623 119.05L497.023 123.55C498.123 123.55 499.123 123.55 500.023 123.55C501.023 123.55 502.023 123.6 503.023 123.7C504.523 123.8 505.823 123.95 506.923 124.15C508.123 124.35 509.273 124.6 510.373 124.9C510.673 125.1 511.123 125.45 511.723 125.95C512.323 126.45 512.873 127.1 513.373 127.9C513.973 128.6 514.473 129.35 514.873 130.15C515.373 130.95 515.673 131.7 515.773 132.4C515.873 133 515.673 133.7 515.173 134.5C514.673 135.2 514.073 135.85 513.373 136.45C512.673 137.05 511.923 137.55 511.123 137.95C510.423 138.25 509.773 138.25 509.173 137.95C506.873 136.85 503.923 136.1 500.323 135.7C496.723 135.2 492.673 135.05 488.173 135.25C484.473 135.45 481.173 135.65 478.273 135.85C475.473 136.05 472.973 136.5 470.773 137.2C470.173 137.4 469.423 137.15 468.523 136.45C467.723 135.75 467.273 135.25 467.173 134.95C467.073 133.75 467.323 132.7 467.923 131.8C468.523 130.8 469.223 129.95 470.023 129.25C470.923 128.45 471.823 127.85 472.723 127.45C473.623 126.95 474.323 126.6 474.823 126.4C477.923 125.4 481.873 124.6 486.673 124V123.85ZM574.769 83.35C574.769 89.95 574.669 96.3 574.469 102.4C574.269 108.5 573.969 113.65 573.569 117.85C573.469 119.05 573.069 120.9 572.369 123.4C571.669 125.8 570.769 128.25 569.669 130.75C568.669 133.15 567.469 135.25 566.069 137.05C564.769 138.85 563.419 139.75 562.019 139.75C561.319 139.75 560.519 139.5 559.619 139C558.819 138.5 558.419 137.7 558.419 136.6C558.419 136.4 558.569 135.8 558.869 134.8C559.269 133.7 559.569 133 559.769 132.7C560.369 128.9 560.769 123.85 560.969 117.55C561.269 111.25 561.419 104.5 561.419 97.3C561.519 90 561.519 82.6 561.419 75.1C561.419 67.5 561.419 60.5 561.419 54.1C561.419 53.4 561.019 52.9 560.219 52.6C559.419 52.2 558.469 51.85 557.369 51.55C556.369 51.25 555.269 50.95 554.069 50.65C552.969 50.35 552.119 49.95 551.519 49.45C551.219 48.05 551.119 46.75 551.219 45.55C551.419 44.35 552.019 43.5 553.019 43C554.419 42.3 556.069 41.8 557.969 41.5C559.969 41.1 561.769 40.95 563.369 41.05C565.269 41.15 567.169 41.5 569.069 42.1C570.969 42.7 572.669 43.85 574.169 45.55C574.869 46.45 575.819 47.95 577.019 50.05C578.319 52.05 579.719 54.4 581.219 57.1C582.819 59.7 584.419 62.4 586.019 65.2C587.719 68 589.319 70.55 590.819 72.85C592.319 75.15 593.669 77.05 594.869 78.55C596.069 80.05 596.969 80.8 597.569 80.8C598.369 80.8 599.619 79.8 601.319 77.8C603.119 75.8 605.019 73.4 607.019 70.6C609.119 67.8 611.169 64.9 613.169 61.9C615.269 58.9 617.019 56.4 618.419 54.4C619.619 52.9 620.619 51.35 621.419 49.75C622.219 48.05 623.019 46.5 623.819 45.1C624.719 43.6 625.719 42.4 626.819 41.5C628.019 40.6 629.569 40.15 631.469 40.15C632.969 40.15 634.119 40.7 634.919 41.8C635.719 42.9 636.269 44.1 636.569 45.4C637.669 49.9 638.119 54.75 637.919 59.95C637.819 65.15 637.769 70.75 637.769 76.75C637.769 80.05 637.719 82.85 637.619 85.15C637.619 87.45 637.569 89.75 637.469 92.05C637.469 94.35 637.419 96.95 637.319 99.85C637.219 102.65 637.119 106.25 637.019 110.65C636.919 112.75 636.819 115.15 636.719 117.85C636.619 120.55 636.369 123.3 635.969 126.1C635.669 128.8 635.119 131.4 634.319 133.9C633.619 136.4 632.569 138.55 631.169 140.35C630.669 140.95 630.069 141.25 629.369 141.25C628.269 141.25 627.369 140.35 626.669 138.55C625.969 136.75 625.419 134.7 625.019 132.4C624.719 130.1 624.469 127.9 624.269 125.8C624.169 123.7 624.119 122.3 624.119 121.6C623.519 112.5 623.419 103.35 623.819 94.15C624.219 84.95 624.119 75.85 623.519 66.85C621.919 69.85 619.919 73.1 617.519 76.6C615.119 80 612.669 83.2 610.169 86.2C607.669 89.2 605.219 91.7 602.819 93.7C600.419 95.6 598.419 96.55 596.819 96.55C595.019 96.55 593.269 95.95 591.569 94.75C589.869 93.55 588.269 92.1 586.769 90.4C585.369 88.7 584.119 86.95 583.019 85.15C581.919 83.25 581.019 81.65 580.319 80.35C579.519 78.95 578.569 77.5 577.469 76C576.369 74.4 575.469 72.8 574.769 71.2V83.35ZM733.932 40C740.232 40 745.682 41.4 750.282 44.2C754.982 46.9 758.832 50.5 761.832 55C764.932 59.4 767.232 64.4 768.732 70C770.232 75.5 770.982 81.05 770.982 86.65C770.982 93.45 769.932 100.05 767.832 106.45C765.732 112.75 762.682 118.35 758.682 123.25C754.782 128.05 749.982 131.9 744.282 134.8C738.682 137.7 732.382 139.15 725.382 139.15C718.582 139.15 712.632 137.95 707.532 135.55C702.432 133.15 698.132 129.85 694.632 125.65C691.232 121.35 688.682 116.35 686.982 110.65C685.282 104.85 684.432 98.55 684.432 91.75C684.432 84.55 685.482 77.8 687.582 71.5C689.782 65.2 692.982 59.75 697.182 55.15C701.382 50.45 706.532 46.75 712.632 44.05C718.832 41.35 725.932 40 733.932 40ZM731.532 51.7C725.932 51.7 720.982 52.95 716.682 55.45C712.482 57.95 708.932 61.2 706.032 65.2C703.132 69.2 700.932 73.65 699.432 78.55C697.932 83.45 697.182 88.3 697.182 93.1C697.182 96.6 697.682 100.3 698.682 104.2C699.782 108 701.482 111.5 703.782 114.7C706.182 117.9 709.282 120.55 713.082 122.65C716.882 124.75 721.482 125.8 726.882 125.8C731.982 125.8 736.482 124.5 740.382 121.9C744.282 119.3 747.482 116 749.982 112C752.582 107.9 754.532 103.45 755.832 98.65C757.132 93.75 757.782 89.05 757.782 84.55C757.782 80.75 757.232 76.9 756.132 73C755.032 69.1 753.382 65.6 751.182 62.5C749.082 59.3 746.382 56.7 743.082 54.7C739.782 52.7 735.932 51.7 731.532 51.7ZM822.005 58.75C821.005 58.45 819.855 57.9 818.555 57.1C817.355 56.2 816.205 55.2 815.105 54.1C814.105 53 813.205 51.9 812.405 50.8C811.705 49.7 811.355 48.85 811.355 48.25C811.355 47.05 812.855 46.35 815.855 46.15C818.855 45.85 823.655 45.55 830.255 45.25C832.755 45.15 835.605 45.05 838.805 44.95C842.105 44.75 845.455 44.6 848.855 44.5C852.355 44.3 855.805 44.1 859.205 43.9C862.605 43.7 865.655 43.5 868.355 43.3C868.855 43.3 869.555 43.5 870.455 43.9C871.355 44.2 872.255 44.65 873.155 45.25C874.055 45.85 874.805 46.55 875.405 47.35C876.105 48.05 876.455 48.75 876.455 49.45C876.455 50.25 875.955 50.95 874.955 51.55C874.055 52.05 872.755 52.6 871.055 53.2C868.055 58.9 864.755 64.9 861.155 71.2C857.655 77.5 854.055 83.8 850.355 90.1C846.755 96.4 843.155 102.65 839.555 108.85C835.955 114.95 832.605 120.75 829.505 126.25C833.005 126.35 836.355 126.4 839.555 126.4C842.755 126.3 845.855 126.2 848.855 126.1C851.855 125.9 854.805 125.75 857.705 125.65C860.705 125.55 863.755 125.45 866.855 125.35C867.255 125.35 868.055 125.35 869.255 125.35C870.555 125.25 871.855 125.25 873.155 125.35C874.455 125.35 875.605 125.5 876.605 125.8C877.605 126.1 878.105 126.55 878.105 127.15C878.105 128.35 877.555 129.65 876.455 131.05C875.355 132.35 874.055 133.6 872.555 134.8C871.055 135.9 869.455 136.8 867.755 137.5C866.155 138.2 864.805 138.55 863.705 138.55C860.205 138.55 856.855 138.5 853.655 138.4C850.455 138.3 847.205 138.2 843.905 138.1C840.605 137.9 837.205 137.75 833.705 137.65C830.305 137.55 826.605 137.4 822.605 137.2C821.105 137.2 819.555 136.95 817.955 136.45C816.355 135.85 814.855 135.15 813.455 134.35C812.055 133.45 810.905 132.45 810.005 131.35C809.105 130.15 808.655 128.85 808.655 127.45C808.655 126.65 809.255 126.2 810.455 126.1C811.755 126 813.355 125.85 815.255 125.65C818.355 120.35 821.555 114.7 824.855 108.7C828.155 102.6 831.405 96.45 834.605 90.25C837.805 84.05 840.905 77.95 843.905 71.95C847.005 65.95 849.855 60.4 852.455 55.3C850.455 55.5 848.105 55.8 845.405 56.2C842.705 56.5 839.955 56.85 837.155 57.25C834.355 57.55 831.605 57.85 828.905 58.15C826.305 58.45 824.005 58.65 822.005 58.75ZM947.633 57.4C947.033 57 946.333 56.5 945.533 55.9C944.733 55.3 943.883 54.65 942.983 53.95C942.183 53.15 941.483 52.4 940.883 51.7C940.283 50.9 939.933 50.15 939.833 49.45C939.633 48.65 939.633 47.6 939.833 46.3C940.033 44.9 940.583 44.2 941.483 44.2C941.983 44.2 942.533 44.3 943.133 44.5C943.833 44.7 944.433 44.9 944.933 45.1C946.133 45.5 947.383 46.1 948.683 46.9C950.083 47.6 951.383 48.35 952.583 49.15C954.183 50.45 955.583 52.6 956.783 55.6C960.383 65.7 964.183 76 968.183 86.5C972.283 97 976.683 108.55 981.383 121.15C982.283 123.35 982.933 125.8 983.333 128.5C983.733 131.2 983.883 133.75 983.783 136.15C983.783 138.45 983.483 140.4 982.883 142C982.383 143.6 981.633 144.4 980.633 144.4C980.033 144.4 979.283 143.8 978.383 142.6C977.483 141.4 976.583 140 975.683 138.4C974.883 136.8 974.133 135.25 973.433 133.75C972.733 132.15 972.233 131 971.933 130.3L962.183 106.75C959.383 107.65 955.933 108.5 951.833 109.3C947.733 110 942.833 110.25 937.133 110.05C936.833 111.45 936.183 113.65 935.183 116.65C934.283 119.55 933.233 122.6 932.033 125.8C930.933 128.9 929.833 131.85 928.733 134.65C927.633 137.35 926.733 139.15 926.033 140.05C925.233 141.05 924.283 141.9 923.183 142.6C922.083 143.4 920.533 143.9 918.533 144.1C918.133 144.1 917.483 144.05 916.583 143.95C915.783 143.95 914.933 143.85 914.033 143.65C913.133 143.55 912.333 143.3 911.633 142.9C911.033 142.6 910.733 142.2 910.733 141.7C910.733 141.2 911.233 140.7 912.233 140.2C913.233 139.7 913.933 139.25 914.333 138.85C915.333 137.05 916.383 134.85 917.483 132.25C918.583 129.55 919.633 126.8 920.633 124C921.733 121.2 922.733 118.45 923.633 115.75C924.533 113.05 925.283 110.7 925.883 108.7C925.383 108.7 924.783 108.6 924.083 108.4C923.383 108.2 922.633 108 921.833 107.8C921.033 107.5 920.233 107.2 919.433 106.9C918.733 106.5 918.183 106.1 917.783 105.7C916.983 104.9 916.283 103.95 915.683 102.85C915.183 101.65 915.033 100.6 915.233 99.7C915.333 99.3 915.833 99.1 916.733 99.1C917.733 99 918.533 98.9 919.133 98.8H924.533C925.533 98.8 926.433 98.85 927.233 98.95C928.033 98.95 928.533 98.95 928.733 98.95L938.183 68.95C938.783 66.65 939.683 64.6 940.883 62.8C942.183 61 943.533 59.75 944.933 59.05L947.633 57.4ZM948.983 67.75C948.383 69.75 947.683 72.1 946.883 74.8C946.183 77.5 945.433 80.3 944.633 83.2C943.833 86.1 943.033 88.95 942.233 91.75C941.533 94.55 940.883 97.05 940.283 99.25C943.183 99.35 946.333 99.25 949.733 98.95C953.133 98.55 956.133 97.95 958.733 97.15C957.033 91.85 955.583 87.45 954.383 83.95C953.283 80.35 952.333 77.5 951.533 75.4C950.833 73.2 950.283 71.6 949.883 70.6C949.583 69.5 949.333 68.75 949.133 68.35L948.983 67.75Z" fill="#89664C"/>
<path d="M378.939 217.75C378.939 217.517 378.773 217.3 378.439 217.1C378.139 216.9 377.806 216.65 377.439 216.35C377.073 216.05 376.723 215.7 376.389 215.3C376.089 214.867 375.939 214.317 375.939 213.65C375.939 213.35 375.989 213.133 376.089 213C376.189 212.867 376.306 212.767 376.439 212.7C376.573 212.633 376.706 212.6 376.839 212.6C376.973 212.6 377.089 212.6 377.189 212.6C377.723 212.6 378.289 212.683 378.889 212.85C379.523 212.983 380.106 213.183 380.639 213.45C381.206 213.683 381.706 213.95 382.139 214.25C382.606 214.55 382.939 214.85 383.139 215.15C383.906 214.683 384.839 214.367 385.939 214.2C387.073 214 388.156 213.9 389.189 213.9C390.589 213.9 391.906 214.1 393.139 214.5C394.406 214.9 395.523 215.533 396.489 216.4C397.589 217.4 398.356 218.633 398.789 220.1C399.256 221.567 399.489 223 399.489 224.4C399.489 225.9 399.073 227.183 398.239 228.25C397.406 229.283 396.356 230.133 395.089 230.8C393.856 231.467 392.523 231.967 391.089 232.3C389.656 232.6 388.339 232.75 387.139 232.75C386.039 232.75 385.373 232.617 385.139 232.35C384.906 232.05 384.789 231.8 384.789 231.6C384.789 231.367 385.039 231.15 385.539 230.95C386.039 230.717 386.656 230.467 387.389 230.2C388.123 229.933 388.923 229.633 389.789 229.3C390.689 228.933 391.506 228.5 392.239 228C392.973 227.5 393.589 226.917 394.089 226.25C394.589 225.583 394.839 224.783 394.839 223.85C394.839 223.25 394.706 222.567 394.439 221.8C394.173 221.033 393.773 220.317 393.239 219.65C392.706 218.95 392.039 218.367 391.239 217.9C390.473 217.4 389.589 217.15 388.589 217.15C387.723 217.15 386.873 217.267 386.039 217.5C385.206 217.733 384.373 218.117 383.539 218.65C383.539 220.083 383.556 221.717 383.589 223.55C383.623 225.35 383.639 227.1 383.639 228.8C383.639 230.5 383.589 232.167 383.489 233.8C383.423 235.433 383.339 237 383.239 238.5C383.206 239.2 383.089 240.033 382.889 241C382.723 241.933 382.473 242.833 382.139 243.7C381.839 244.533 381.489 245.25 381.089 245.85C380.723 246.45 380.323 246.75 379.889 246.75C379.823 246.75 379.706 246.717 379.539 246.65C379.406 246.583 379.256 246.467 379.089 246.3C378.923 246.167 378.756 245.983 378.589 245.75C378.456 245.517 378.373 245.25 378.339 244.95C378.473 244.35 378.623 243.417 378.789 242.15C378.956 240.85 379.056 239.517 379.089 238.15C379.123 236.883 379.139 235.467 379.139 233.9C379.173 232.333 379.173 230.683 379.139 228.95C379.139 227.183 379.123 225.35 379.089 223.45C379.056 221.55 379.006 219.65 378.939 217.75ZM429.236 213C431.336 213 433.152 213.467 434.686 214.4C436.252 215.3 437.536 216.5 438.536 218C439.569 219.467 440.336 221.133 440.836 223C441.336 224.833 441.586 226.683 441.586 228.55C441.586 230.817 441.236 233.017 440.536 235.15C439.836 237.25 438.819 239.117 437.486 240.75C436.186 242.35 434.586 243.633 432.686 244.6C430.819 245.567 428.719 246.05 426.386 246.05C424.119 246.05 422.136 245.65 420.436 244.85C418.736 244.05 417.302 242.95 416.136 241.55C415.002 240.117 414.152 238.45 413.586 236.55C413.019 234.617 412.736 232.517 412.736 230.25C412.736 227.85 413.086 225.6 413.786 223.5C414.519 221.4 415.586 219.583 416.986 218.05C418.386 216.483 420.102 215.25 422.136 214.35C424.202 213.45 426.569 213 429.236 213ZM428.436 216.9C426.569 216.9 424.919 217.317 423.486 218.15C422.086 218.983 420.902 220.067 419.936 221.4C418.969 222.733 418.236 224.217 417.736 225.85C417.236 227.483 416.986 229.1 416.986 230.7C416.986 231.867 417.152 233.1 417.486 234.4C417.852 235.667 418.419 236.833 419.186 237.9C419.986 238.967 421.019 239.85 422.286 240.55C423.552 241.25 425.086 241.6 426.886 241.6C428.586 241.6 430.086 241.167 431.386 240.3C432.686 239.433 433.752 238.333 434.586 237C435.452 235.633 436.102 234.15 436.536 232.55C436.969 230.917 437.186 229.35 437.186 227.85C437.186 226.583 437.002 225.3 436.636 224C436.269 222.7 435.719 221.533 434.986 220.5C434.286 219.433 433.386 218.567 432.286 217.9C431.186 217.233 429.902 216.9 428.436 216.9ZM477.494 233.6C477.194 233.567 476.91 233.55 476.644 233.55C476.377 233.55 476.077 233.55 475.744 233.55C475.444 233.55 475.077 233.55 474.644 233.55C474.21 233.55 473.694 233.517 473.094 233.45C472.694 233.417 472.26 233.3 471.794 233.1C471.36 232.867 470.944 232.6 470.544 232.3C470.177 232 469.86 231.7 469.594 231.4C469.327 231.067 469.194 230.767 469.194 230.5C469.194 230.233 469.344 230.05 469.644 229.95C469.944 229.817 470.344 229.733 470.844 229.7C471.344 229.667 471.894 229.667 472.494 229.7C473.127 229.7 473.744 229.7 474.344 229.7L481.394 229.85C482.26 229.883 483.094 229.983 483.894 230.15C484.694 230.283 485.11 230.583 485.144 231.05C485.144 231.283 485.044 231.533 484.844 231.8C484.644 232.033 484.377 232.267 484.044 232.5C483.744 232.733 483.394 232.933 482.994 233.1C482.627 233.267 482.26 233.367 481.894 233.4V242.2C481.894 242.933 481.777 243.65 481.544 244.35C481.344 245.017 481.077 245.6 480.744 246.1C480.41 246.633 480.06 247.05 479.694 247.35C479.36 247.65 479.06 247.8 478.794 247.8C478.627 247.8 478.394 247.7 478.094 247.5C477.794 247.3 477.594 247.067 477.494 246.8C477.694 246.3 477.827 245.7 477.894 245C477.96 244.267 477.977 243.517 477.944 242.75C476.344 244.183 474.76 245.167 473.194 245.7C471.627 246.2 470.094 246.433 468.594 246.4C466.86 246.367 465.21 245.967 463.644 245.2C462.077 244.4 460.694 243.317 459.494 241.95C458.294 240.583 457.344 238.967 456.644 237.1C455.944 235.2 455.594 233.133 455.594 230.9C455.594 228 455.994 225.433 456.794 223.2C457.594 220.933 458.677 219.033 460.044 217.5C461.444 215.933 463.044 214.75 464.844 213.95C466.644 213.15 468.544 212.75 470.544 212.75C471.51 212.75 472.494 212.867 473.494 213.1C474.494 213.333 475.394 213.617 476.194 213.95C477.027 214.25 477.694 214.6 478.194 215C478.727 215.367 478.994 215.7 478.994 216C478.994 216.333 478.71 216.667 478.144 217C477.577 217.333 476.91 217.5 476.144 217.5C475.777 217.5 475.41 217.467 475.044 217.4C474.71 217.333 474.344 217.25 473.944 217.15C473.544 217.05 473.094 216.967 472.594 216.9C472.094 216.833 471.51 216.8 470.844 216.8C469.344 216.8 467.977 217.1 466.744 217.7C465.51 218.267 464.444 219.1 463.544 220.2C462.677 221.267 461.994 222.583 461.494 224.15C460.994 225.717 460.744 227.483 460.744 229.45C460.744 231.117 460.944 232.667 461.344 234.1C461.777 235.5 462.344 236.75 463.044 237.85C463.744 238.917 464.56 239.8 465.494 240.5C466.46 241.2 467.477 241.633 468.544 241.8C469.177 241.9 469.894 241.933 470.694 241.9C471.527 241.833 472.36 241.667 473.194 241.4C474.027 241.1 474.81 240.7 475.544 240.2C476.31 239.667 476.96 238.983 477.494 238.15V233.6ZM499.928 217.6C499.928 217.233 499.745 216.917 499.378 216.65C499.045 216.383 498.578 216.183 497.978 216.05C497.745 215.983 497.445 215.917 497.078 215.85C496.745 215.783 496.562 215.633 496.528 215.4C496.528 215.233 496.578 215.067 496.678 214.9C496.812 214.7 496.962 214.517 497.128 214.35C497.295 214.183 497.478 214.05 497.678 213.95C497.878 213.817 498.045 213.733 498.178 213.7C499.545 213.333 500.762 213.333 501.828 213.7C502.895 214.033 503.578 214.533 503.878 215.2C504.745 214.633 505.845 214.133 507.178 213.7C508.512 213.267 509.928 213.05 511.428 213.05C512.995 213.05 514.378 213.333 515.578 213.9C516.778 214.433 517.778 215.167 518.578 216.1C519.412 217 520.028 218.033 520.428 219.2C520.862 220.367 521.078 221.567 521.078 222.8C521.078 223.5 520.962 224.25 520.728 225.05C520.495 225.85 520.095 226.617 519.528 227.35C518.962 228.083 518.178 228.75 517.178 229.35C516.212 229.95 514.962 230.417 513.428 230.75C513.695 233.883 514.628 236.65 516.228 239.05C517.828 241.417 519.928 243.4 522.528 245C522.962 245.3 523.195 245.617 523.228 245.95C523.262 246.25 523.145 246.467 522.878 246.6C522.645 246.733 522.128 246.833 521.328 246.9C520.562 246.967 519.728 246.867 518.828 246.6C517.262 246.1 515.928 245.283 514.828 244.15C513.728 242.983 512.795 241.683 512.028 240.25C511.295 238.783 510.712 237.283 510.278 235.75C509.878 234.183 509.595 232.75 509.428 231.45C508.928 231.483 508.262 231.533 507.428 231.6C506.595 231.633 505.678 231.65 504.678 231.65C504.678 232.817 504.645 233.967 504.578 235.1C504.545 236.233 504.462 237.383 504.328 238.55C504.295 238.85 504.195 239.45 504.028 240.35C503.862 241.217 503.628 242.133 503.328 243.1C503.062 244.067 502.712 244.933 502.278 245.7C501.878 246.433 501.412 246.8 500.878 246.8C500.812 246.8 500.678 246.75 500.478 246.65C500.278 246.583 500.078 246.467 499.878 246.3C499.678 246.133 499.512 245.933 499.378 245.7C499.245 245.467 499.228 245.2 499.328 244.9C499.428 244.6 499.512 244.133 499.578 243.5C499.645 242.867 499.695 242.133 499.728 241.3C499.795 240.467 499.845 239.567 499.878 238.6C499.912 237.633 499.928 236.65 499.928 235.65V217.6ZM504.678 229.1C505.645 228.967 506.778 228.8 508.078 228.6C509.412 228.4 510.678 228.083 511.878 227.65C513.078 227.183 514.095 226.55 514.928 225.75C515.762 224.95 516.178 223.867 516.178 222.5C516.178 222.067 516.078 221.517 515.878 220.85C515.678 220.183 515.328 219.55 514.828 218.95C514.328 218.35 513.662 217.833 512.828 217.4C511.995 216.967 510.945 216.75 509.678 216.75C508.812 216.75 507.962 216.867 507.128 217.1C506.328 217.3 505.462 217.683 504.528 218.25C504.528 220.717 504.545 222.783 504.578 224.45C504.645 226.083 504.678 227.633 504.678 229.1ZM542.402 228.55C544.069 228.417 545.685 228.3 547.252 228.2C548.852 228.1 550.452 228.033 552.052 228C552.985 227.967 553.685 228.083 554.152 228.35C554.619 228.583 554.869 228.783 554.902 228.95C554.935 229.217 554.869 229.55 554.702 229.95C554.569 230.35 554.352 230.75 554.052 231.15C553.752 231.55 553.402 231.9 553.002 232.2C552.602 232.467 552.185 232.6 551.752 232.6C550.252 232.6 548.669 232.583 547.002 232.55C545.369 232.483 543.802 232.417 542.302 232.35C542.335 234.15 542.252 235.967 542.052 237.8C541.885 239.6 541.669 241.05 541.402 242.15C541.935 242.217 542.785 242.283 543.952 242.35C545.119 242.417 546.602 242.45 548.402 242.45C550.069 242.45 551.552 242.367 552.852 242.2C554.152 242 555.335 241.8 556.402 241.6C556.602 241.8 556.685 242.067 556.652 242.4C556.652 242.733 556.585 243.083 556.452 243.45C556.319 243.783 556.152 244.1 555.952 244.4C555.752 244.667 555.569 244.85 555.402 244.95C554.935 245.217 554.019 245.533 552.652 245.9C551.285 246.233 549.669 246.433 547.802 246.5C547.135 246.533 546.419 246.533 545.652 246.5C544.919 246.5 544.202 246.467 543.502 246.4C542.802 246.367 542.152 246.3 541.552 246.2C540.985 246.133 540.552 246.067 540.252 246C540.119 246.2 539.935 246.4 539.702 246.6C539.469 246.8 539.202 246.967 538.902 247.1C538.635 247.267 538.335 247.383 538.002 247.45C537.702 247.517 537.419 247.5 537.152 247.4C536.919 247.3 536.769 247.133 536.702 246.9C536.669 246.667 536.669 246.383 536.702 246.05C536.735 245.75 536.785 245.417 536.852 245.05C536.952 244.683 537.035 244.317 537.102 243.95C537.402 241.717 537.585 239.483 537.652 237.25C537.752 235.017 537.802 232.833 537.802 230.7C537.802 228.567 537.769 226.5 537.702 224.5C537.635 222.5 537.585 220.6 537.552 218.8C536.852 218.533 536.235 218.2 535.702 217.8C535.169 217.367 534.785 216.833 534.552 216.2C534.485 216 534.502 215.8 534.602 215.6C534.702 215.4 534.835 215.233 535.002 215.1C535.202 214.933 535.402 214.817 535.602 214.75C535.802 214.65 535.952 214.617 536.052 214.65C537.252 215.15 538.602 215.4 540.102 215.4C542.435 215.367 544.602 215.25 546.602 215.05C548.635 214.817 550.769 214.6 553.002 214.4C553.235 214.367 553.519 214.383 553.852 214.45C554.219 214.483 554.552 214.55 554.852 214.65C555.185 214.75 555.452 214.883 555.652 215.05C555.885 215.183 556.002 215.35 556.002 215.55C556.002 215.817 555.902 216.117 555.702 216.45C555.502 216.783 555.252 217.117 554.952 217.45C554.652 217.75 554.302 218.033 553.902 218.3C553.535 218.533 553.185 218.683 552.852 218.75C551.052 218.917 549.319 219.033 547.652 219.1C546.019 219.133 544.235 219.15 542.302 219.15L542.402 228.55ZM571.092 218.3C570.825 218.3 570.509 218.3 570.142 218.3C569.775 218.267 569.409 218.233 569.042 218.2C568.709 218.133 568.392 218.067 568.092 218C567.825 217.9 567.675 217.783 567.642 217.65C567.575 217.517 567.575 217.333 567.642 217.1C567.742 216.833 567.859 216.583 567.992 216.35C568.125 216.083 568.259 215.867 568.392 215.7C568.559 215.5 568.692 215.367 568.792 215.3C569.459 215 570.125 214.767 570.792 214.6C571.459 214.433 572.175 214.383 572.942 214.45C573.175 214.45 573.392 214.55 573.592 214.75C573.825 214.917 574.025 215.133 574.192 215.4C574.392 215.633 574.542 215.883 574.642 216.15C574.742 216.383 574.825 216.567 574.892 216.7C575.292 216.367 575.742 216.05 576.242 215.75C576.775 215.45 577.325 215.2 577.892 215C578.459 214.767 579.025 214.6 579.592 214.5C580.159 214.367 580.675 214.283 581.142 214.25C582.375 214.183 583.492 214.3 584.492 214.6C585.492 214.9 586.342 215.35 587.042 215.95C587.775 216.517 588.342 217.233 588.742 218.1C589.142 218.933 589.359 219.867 589.392 220.9C589.425 221.667 589.325 222.467 589.092 223.3C588.859 224.133 588.509 224.95 588.042 225.75C587.609 226.55 587.059 227.3 586.392 228C585.759 228.7 585.025 229.267 584.192 229.7C585.325 229.667 586.425 229.783 587.492 230.05C588.559 230.317 589.492 230.75 590.292 231.35C591.125 231.917 591.775 232.65 592.242 233.55C592.709 234.45 592.925 235.517 592.892 236.75C592.825 237.95 592.492 239.083 591.892 240.15C591.325 241.183 590.492 242.1 589.392 242.9C588.292 243.667 586.959 244.267 585.392 244.7C583.859 245.1 582.092 245.283 580.092 245.25C579.759 245.25 579.309 245.217 578.742 245.15C578.175 245.05 577.609 244.917 577.042 244.75C576.509 244.583 576.042 244.4 575.642 244.2C575.242 243.967 575.042 243.717 575.042 243.45C575.042 243.217 575.225 243.033 575.592 242.9C575.959 242.733 576.392 242.6 576.892 242.5C577.392 242.4 577.909 242.317 578.442 242.25C578.975 242.183 579.392 242.133 579.692 242.1C582.425 241.767 584.475 241.033 585.842 239.9C587.242 238.733 587.909 237.417 587.842 235.95C587.809 235.183 587.609 234.55 587.242 234.05C586.875 233.517 586.392 233.083 585.792 232.75C585.225 232.383 584.559 232.1 583.792 231.9C583.059 231.7 582.292 231.517 581.492 231.35C580.625 231.717 579.775 231.95 578.942 232.05C578.575 232.117 578.192 232.15 577.792 232.15C577.392 232.117 577.159 231.967 577.092 231.7C577.025 231.4 577.142 231.033 577.442 230.6C577.742 230.133 578.125 229.767 578.592 229.5C579.159 229.167 579.792 228.75 580.492 228.25C581.225 227.717 581.909 227.117 582.542 226.45C583.209 225.75 583.742 224.983 584.142 224.15C584.575 223.317 584.775 222.4 584.742 221.4C584.709 220.367 584.309 219.517 583.542 218.85C582.809 218.183 581.825 217.85 580.592 217.85C579.492 217.85 578.475 218.05 577.542 218.45C576.609 218.817 575.842 219.3 575.242 219.9C575.309 221.333 575.375 222.967 575.442 224.8C575.509 226.633 575.542 228.35 575.542 229.95C575.542 231.75 575.459 233.733 575.292 235.9C575.125 238.067 574.809 240.15 574.342 242.15C574.275 242.45 574.142 242.867 573.942 243.4C573.775 243.9 573.559 244.417 573.292 244.95C573.059 245.483 572.792 245.933 572.492 246.3C572.225 246.7 571.975 246.9 571.742 246.9C571.575 246.9 571.392 246.783 571.192 246.55C571.025 246.317 570.875 246.067 570.742 245.8C570.609 245.533 570.492 245.283 570.392 245.05C570.325 244.783 570.292 244.617 570.292 244.55C570.325 244.15 570.375 243.767 570.442 243.4C570.542 243 570.625 242.617 570.692 242.25C570.859 241.35 570.992 240.35 571.092 239.25C571.225 238.117 571.325 236.967 571.392 235.8C571.492 234.633 571.542 233.483 571.542 232.35C571.575 231.183 571.575 230.117 571.542 229.15L571.092 218.3ZM611.842 227.5C611.842 228.1 611.842 228.867 611.842 229.8C611.875 230.733 611.892 231.7 611.892 232.7C611.925 233.667 611.942 234.617 611.942 235.55C611.975 236.45 611.992 237.167 611.992 237.7C611.992 240.567 611.625 242.783 610.892 244.35C610.158 245.917 609.208 246.7 608.042 246.7C607.842 246.7 607.708 246.55 607.642 246.25C607.608 245.95 607.592 245.55 607.592 245.05C607.592 244.55 607.608 244 607.642 243.4C607.675 242.767 607.692 242.117 607.692 241.45C607.692 239.05 607.692 236.017 607.692 232.35C607.692 228.65 607.608 224.55 607.442 220.05C607.408 219.85 607.192 219.467 606.792 218.9C606.425 218.333 606.058 217.733 605.692 217.1C605.325 216.433 605.042 215.817 604.842 215.25C604.675 214.683 604.775 214.317 605.142 214.15C605.642 213.85 606.242 213.817 606.942 214.05C607.642 214.283 608.342 214.65 609.042 215.15C609.742 215.617 610.392 216.15 610.992 216.75C611.625 217.35 612.092 217.867 612.392 218.3C613.492 220 614.492 221.733 615.392 223.5C616.325 225.233 617.242 227 618.142 228.8C619.042 230.6 619.992 232.45 620.992 234.35C621.992 236.217 623.142 238.117 624.442 240.05C624.608 240.317 624.808 240.6 625.042 240.9C625.275 241.2 625.492 241.35 625.692 241.35C625.758 241.35 625.825 241.133 625.892 240.7C625.958 240.267 626.008 239.7 626.042 239C626.075 236.867 626.108 234.783 626.142 232.75C626.208 230.683 626.258 228.717 626.292 226.85C626.325 224.983 626.375 223.233 626.442 221.6C626.508 219.967 626.592 218.467 626.692 217.1C626.725 216.5 626.875 215.917 627.142 215.35C627.408 214.783 627.708 214.283 628.042 213.85C628.408 213.383 628.775 213.017 629.142 212.75C629.542 212.483 629.875 212.35 630.142 212.35C630.375 212.35 630.542 212.517 630.642 212.85C630.775 213.15 630.858 213.567 630.892 214.1C630.958 214.633 630.992 215.25 630.992 215.95C630.992 216.617 630.992 217.317 630.992 218.05C630.992 220.083 630.992 221.917 630.992 223.55C631.025 225.15 631.025 226.7 630.992 228.2C630.992 229.7 630.975 231.25 630.942 232.85C630.908 234.417 630.858 236.2 630.792 238.2C630.725 239.9 630.575 241.267 630.342 242.3C630.142 243.333 629.875 244.15 629.542 244.75C629.242 245.317 628.892 245.717 628.492 245.95C628.125 246.183 627.742 246.333 627.342 246.4C626.242 246.6 625.192 246.467 624.192 246C623.225 245.567 622.342 244.9 621.542 244C620.642 243 619.708 241.733 618.742 240.2C617.808 238.667 616.892 237.05 615.992 235.35C615.125 233.65 614.325 231.967 613.592 230.3C612.858 228.633 612.275 227.167 611.842 225.9V227.5ZM653.164 228.55C654.831 228.417 656.447 228.3 658.014 228.2C659.614 228.1 661.214 228.033 662.814 228C663.747 227.967 664.447 228.083 664.914 228.35C665.381 228.583 665.631 228.783 665.664 228.95C665.697 229.217 665.631 229.55 665.464 229.95C665.331 230.35 665.114 230.75 664.814 231.15C664.514 231.55 664.164 231.9 663.764 232.2C663.364 232.467 662.947 232.6 662.514 232.6C661.014 232.6 659.431 232.583 657.764 232.55C656.131 232.483 654.564 232.417 653.064 232.35C653.097 234.15 653.014 235.967 652.814 237.8C652.647 239.6 652.431 241.05 652.164 242.15C652.697 242.217 653.547 242.283 654.714 242.35C655.881 242.417 657.364 242.45 659.164 242.45C660.831 242.45 662.314 242.367 663.614 242.2C664.914 242 666.097 241.8 667.164 241.6C667.364 241.8 667.447 242.067 667.414 242.4C667.414 242.733 667.347 243.083 667.214 243.45C667.081 243.783 666.914 244.1 666.714 244.4C666.514 244.667 666.331 244.85 666.164 244.95C665.697 245.217 664.781 245.533 663.414 245.9C662.047 246.233 660.431 246.433 658.564 246.5C657.897 246.533 657.181 246.533 656.414 246.5C655.681 246.5 654.964 246.467 654.264 246.4C653.564 246.367 652.914 246.3 652.314 246.2C651.747 246.133 651.314 246.067 651.014 246C650.881 246.2 650.697 246.4 650.464 246.6C650.231 246.8 649.964 246.967 649.664 247.1C649.397 247.267 649.097 247.383 648.764 247.45C648.464 247.517 648.181 247.5 647.914 247.4C647.681 247.3 647.531 247.133 647.464 246.9C647.431 246.667 647.431 246.383 647.464 246.05C647.497 245.75 647.547 245.417 647.614 245.05C647.714 244.683 647.797 244.317 647.864 243.95C648.164 241.717 648.347 239.483 648.414 237.25C648.514 235.017 648.564 232.833 648.564 230.7C648.564 228.567 648.531 226.5 648.464 224.5C648.397 222.5 648.347 220.6 648.314 218.8C647.614 218.533 646.997 218.2 646.464 217.8C645.931 217.367 645.547 216.833 645.314 216.2C645.247 216 645.264 215.8 645.364 215.6C645.464 215.4 645.597 215.233 645.764 215.1C645.964 214.933 646.164 214.817 646.364 214.75C646.564 214.65 646.714 214.617 646.814 214.65C648.014 215.15 649.364 215.4 650.864 215.4C653.197 215.367 655.364 215.25 657.364 215.05C659.397 214.817 661.531 214.6 663.764 214.4C663.997 214.367 664.281 214.383 664.614 214.45C664.981 214.483 665.314 214.55 665.614 214.65C665.947 214.75 666.214 214.883 666.414 215.05C666.647 215.183 666.764 215.35 666.764 215.55C666.764 215.817 666.664 216.117 666.464 216.45C666.264 216.783 666.014 217.117 665.714 217.45C665.414 217.75 665.064 218.033 664.664 218.3C664.297 218.533 663.947 218.683 663.614 218.75C661.814 218.917 660.081 219.033 658.414 219.1C656.781 219.133 654.997 219.15 653.064 219.15L653.164 228.55ZM727.842 233.2C727.842 235.2 727.625 237.067 727.192 238.8C726.759 240.533 726.059 242.05 725.092 243.35C724.159 244.617 722.942 245.6 721.442 246.3C719.942 247.033 718.125 247.383 715.992 247.35C713.925 247.317 712.209 246.9 710.842 246.1C709.509 245.3 708.425 244.25 707.592 242.95C706.792 241.617 706.209 240.1 705.842 238.4C705.475 236.667 705.275 234.883 705.242 233.05C705.209 232.15 705.175 231.25 705.142 230.35C705.142 229.45 705.142 228.517 705.142 227.55C705.142 226.583 705.142 225.55 705.142 224.45C705.142 223.35 705.142 222.167 705.142 220.9C704.875 220.767 704.525 220.6 704.092 220.4C703.692 220.2 703.292 219.983 702.892 219.75C702.492 219.483 702.142 219.217 701.842 218.95C701.575 218.683 701.442 218.4 701.442 218.1C701.442 217.833 701.625 217.617 701.992 217.45C702.359 217.25 702.792 217.1 703.292 217C703.792 216.9 704.309 216.85 704.842 216.85C705.409 216.817 705.892 216.833 706.292 216.9C707.525 217.033 708.492 217.333 709.192 217.8C709.892 218.233 710.242 219.05 710.242 220.25C710.242 222.383 710.242 224.433 710.242 226.4C710.242 228.367 710.259 230.517 710.292 232.85C710.292 234.15 710.392 235.433 710.592 236.7C710.792 237.967 711.142 239.117 711.642 240.15C712.142 241.15 712.809 241.967 713.642 242.6C714.509 243.2 715.609 243.5 716.942 243.5C718.142 243.5 719.142 243.217 719.942 242.65C720.775 242.083 721.442 241.333 721.942 240.4C722.442 239.433 722.792 238.317 722.992 237.05C723.225 235.75 723.342 234.383 723.342 232.95C723.342 231.917 723.342 230.933 723.342 230C723.375 229.033 723.392 228.1 723.392 227.2C723.392 226.267 723.375 225.333 723.342 224.4C723.342 223.433 723.325 222.417 723.292 221.35C723.292 221.017 723.259 220.633 723.192 220.2C723.125 219.733 723.042 219.267 722.942 218.8C722.875 218.333 722.775 217.883 722.642 217.45C722.509 217.017 722.359 216.65 722.192 216.35C722.125 216.217 722.042 216.033 721.942 215.8C721.842 215.567 721.759 215.333 721.692 215.1C721.659 214.867 721.642 214.65 721.642 214.45C721.642 214.217 721.709 214.033 721.842 213.9C722.009 213.733 722.259 213.683 722.592 213.75C722.925 213.783 723.259 213.883 723.592 214.05C723.959 214.217 724.309 214.433 724.642 214.7C725.009 214.933 725.292 215.167 725.492 215.4C725.959 215.9 726.342 216.467 726.642 217.1C726.942 217.7 727.175 218.333 727.342 219C727.542 219.667 727.675 220.35 727.742 221.05C727.809 221.717 727.842 222.35 727.842 222.95V233.2ZM742.626 222.4C742.626 220.967 742.876 219.683 743.376 218.55C743.909 217.383 744.643 216.417 745.576 215.65C746.509 214.883 747.609 214.317 748.876 213.95C750.143 213.55 751.526 213.367 753.026 213.4C754.593 213.467 755.993 213.767 757.226 214.3C758.459 214.8 759.426 215.383 760.126 216.05C760.359 216.25 760.609 216.533 760.876 216.9C761.176 217.267 761.409 217.65 761.576 218.05C761.776 218.45 761.876 218.833 761.876 219.2C761.909 219.567 761.776 219.85 761.476 220.05C761.276 220.217 761.009 220.3 760.676 220.3C760.376 220.3 760.059 220.267 759.726 220.2C759.393 220.1 759.076 219.983 758.776 219.85C758.476 219.683 758.243 219.533 758.076 219.4C757.376 218.833 756.543 218.383 755.576 218.05C754.643 217.683 753.793 217.483 753.026 217.45C752.026 217.417 751.143 217.517 750.376 217.75C749.609 217.95 748.959 218.25 748.426 218.65C747.926 219.05 747.543 219.517 747.276 220.05C747.009 220.55 746.876 221.067 746.876 221.6C746.876 222.533 747.243 223.35 747.976 224.05C748.709 224.717 749.509 225.25 750.376 225.65C751.309 226.05 752.276 226.467 753.276 226.9C754.309 227.3 755.326 227.75 756.326 228.25C757.326 228.75 758.276 229.3 759.176 229.9C760.076 230.5 760.859 231.2 761.526 232C762.226 232.767 762.776 233.667 763.176 234.7C763.576 235.7 763.776 236.85 763.776 238.15C763.776 239.217 763.543 240.267 763.076 241.3C762.609 242.3 761.943 243.217 761.076 244.05C760.209 244.883 759.143 245.567 757.876 246.1C756.643 246.633 755.243 246.917 753.676 246.95C752.509 246.983 751.293 246.867 750.026 246.6C748.759 246.333 747.593 245.9 746.526 245.3C745.459 244.7 744.526 243.933 743.726 243C742.959 242.033 742.476 240.867 742.276 239.5C742.209 239 742.226 238.533 742.326 238.1C742.426 237.667 742.576 237.3 742.776 237C742.976 236.667 743.193 236.417 743.426 236.25C743.693 236.05 743.943 235.95 744.176 235.95C744.409 235.95 744.643 236.083 744.876 236.35C745.109 236.583 745.309 236.867 745.476 237.2C745.643 237.5 745.776 237.8 745.876 238.1C746.009 238.4 746.109 238.617 746.176 238.75C746.509 239.517 746.959 240.167 747.526 240.7C748.093 241.233 748.693 241.667 749.326 242C749.993 242.333 750.676 242.583 751.376 242.75C752.076 242.883 752.709 242.933 753.276 242.9C754.043 242.867 754.776 242.733 755.476 242.5C756.176 242.267 756.793 241.95 757.326 241.55C757.859 241.117 758.276 240.6 758.576 240C758.909 239.367 759.076 238.667 759.076 237.9C759.076 237.067 758.743 236.25 758.076 235.45C757.443 234.617 756.626 233.85 755.626 233.15C754.659 232.45 753.576 231.817 752.376 231.25C751.209 230.65 750.093 230.15 749.026 229.75C747.159 229.017 745.626 228.017 744.426 226.75C743.226 225.45 742.626 224 742.626 222.4ZM777.942 219.75C777.509 219.083 777.042 218.317 776.542 217.45C776.076 216.583 775.842 215.733 775.842 214.9C775.842 214.633 775.876 214.383 775.942 214.15C776.042 213.917 776.326 213.8 776.792 213.8C777.292 213.8 777.759 213.883 778.192 214.05C778.626 214.217 779.026 214.433 779.392 214.7C779.992 215.167 780.509 215.633 780.942 216.1C781.409 216.533 781.776 217.033 782.042 217.6C782.342 218.167 782.559 218.8 782.692 219.5C782.826 220.2 782.892 221 782.892 221.9C782.892 222.567 782.876 223.267 782.842 224C782.842 224.7 782.826 225.5 782.792 226.4C782.759 227.3 782.726 228.317 782.692 229.45C782.692 230.583 782.692 231.883 782.692 233.35C782.692 235.05 782.642 236.767 782.542 238.5C782.442 240.233 782.276 241.767 782.042 243.1C784.342 243.133 786.526 243.183 788.592 243.25C790.659 243.317 792.859 243.433 795.192 243.6C796.259 243.667 797.142 243.783 797.842 243.95C798.576 244.117 798.942 244.383 798.942 244.75C798.942 244.983 798.842 245.25 798.642 245.55C798.476 245.817 798.242 246.067 797.942 246.3C797.642 246.567 797.326 246.783 796.992 246.95C796.659 247.117 796.342 247.2 796.042 247.2C793.209 247.2 790.426 247.2 787.692 247.2C784.959 247.2 782.042 247.167 778.942 247.1C778.676 247.1 778.409 246.983 778.142 246.75C777.876 246.55 777.642 246.3 777.442 246C777.242 245.7 777.076 245.383 776.942 245.05C776.809 244.683 776.742 244.35 776.742 244.05C776.742 243.683 776.909 243.45 777.242 243.35C777.609 243.217 777.992 243.117 778.392 243.05C778.326 242.283 778.259 241.383 778.192 240.35C778.126 239.317 778.092 238.317 778.092 237.35C778.092 235.917 778.059 233.767 777.992 230.9C777.959 228.033 777.942 224.317 777.942 219.75ZM836.358 233.2C836.358 235.2 836.141 237.067 835.708 238.8C835.274 240.533 834.574 242.05 833.608 243.35C832.674 244.617 831.458 245.6 829.958 246.3C828.458 247.033 826.641 247.383 824.508 247.35C822.441 247.317 820.724 246.9 819.358 246.1C818.024 245.3 816.941 244.25 816.108 242.95C815.308 241.617 814.724 240.1 814.358 238.4C813.991 236.667 813.791 234.883 813.758 233.05C813.724 232.15 813.691 231.25 813.658 230.35C813.658 229.45 813.658 228.517 813.658 227.55C813.658 226.583 813.658 225.55 813.658 224.45C813.658 223.35 813.658 222.167 813.658 220.9C813.391 220.767 813.041 220.6 812.608 220.4C812.208 220.2 811.808 219.983 811.408 219.75C811.008 219.483 810.658 219.217 810.358 218.95C810.091 218.683 809.958 218.4 809.958 218.1C809.958 217.833 810.141 217.617 810.508 217.45C810.874 217.25 811.308 217.1 811.808 217C812.308 216.9 812.824 216.85 813.358 216.85C813.924 216.817 814.408 216.833 814.808 216.9C816.041 217.033 817.008 217.333 817.708 217.8C818.408 218.233 818.758 219.05 818.758 220.25C818.758 222.383 818.758 224.433 818.758 226.4C818.758 228.367 818.774 230.517 818.808 232.85C818.808 234.15 818.908 235.433 819.108 236.7C819.308 237.967 819.658 239.117 820.158 240.15C820.658 241.15 821.324 241.967 822.158 242.6C823.024 243.2 824.124 243.5 825.458 243.5C826.658 243.5 827.658 243.217 828.458 242.65C829.291 242.083 829.958 241.333 830.458 240.4C830.958 239.433 831.308 238.317 831.508 237.05C831.741 235.75 831.858 234.383 831.858 232.95C831.858 231.917 831.858 230.933 831.858 230C831.891 229.033 831.908 228.1 831.908 227.2C831.908 226.267 831.891 225.333 831.858 224.4C831.858 223.433 831.841 222.417 831.808 221.35C831.808 221.017 831.774 220.633 831.708 220.2C831.641 219.733 831.558 219.267 831.458 218.8C831.391 218.333 831.291 217.883 831.158 217.45C831.024 217.017 830.874 216.65 830.708 216.35C830.641 216.217 830.558 216.033 830.458 215.8C830.358 215.567 830.274 215.333 830.208 215.1C830.174 214.867 830.158 214.65 830.158 214.45C830.158 214.217 830.224 214.033 830.358 213.9C830.524 213.733 830.774 213.683 831.108 213.75C831.441 213.783 831.774 213.883 832.108 214.05C832.474 214.217 832.824 214.433 833.158 214.7C833.524 214.933 833.808 215.167 834.008 215.4C834.474 215.9 834.858 216.467 835.158 217.1C835.458 217.7 835.691 218.333 835.858 219C836.058 219.667 836.191 220.35 836.258 221.05C836.324 221.717 836.358 222.35 836.358 222.95V233.2ZM872.992 233.6C872.692 233.567 872.408 233.55 872.142 233.55C871.875 233.55 871.575 233.55 871.242 233.55C870.942 233.55 870.575 233.55 870.142 233.55C869.708 233.55 869.192 233.517 868.592 233.45C868.192 233.417 867.758 233.3 867.292 233.1C866.858 232.867 866.442 232.6 866.042 232.3C865.675 232 865.358 231.7 865.092 231.4C864.825 231.067 864.692 230.767 864.692 230.5C864.692 230.233 864.842 230.05 865.142 229.95C865.442 229.817 865.842 229.733 866.342 229.7C866.842 229.667 867.392 229.667 867.992 229.7C868.625 229.7 869.242 229.7 869.842 229.7L876.892 229.85C877.758 229.883 878.592 229.983 879.392 230.15C880.192 230.283 880.608 230.583 880.642 231.05C880.642 231.283 880.542 231.533 880.342 231.8C880.142 232.033 879.875 232.267 879.542 232.5C879.242 232.733 878.892 232.933 878.492 233.1C878.125 233.267 877.758 233.367 877.392 233.4V242.2C877.392 242.933 877.275 243.65 877.042 244.35C876.842 245.017 876.575 245.6 876.242 246.1C875.908 246.633 875.558 247.05 875.192 247.35C874.858 247.65 874.558 247.8 874.292 247.8C874.125 247.8 873.892 247.7 873.592 247.5C873.292 247.3 873.092 247.067 872.992 246.8C873.192 246.3 873.325 245.7 873.392 245C873.458 244.267 873.475 243.517 873.442 242.75C871.842 244.183 870.258 245.167 868.692 245.7C867.125 246.2 865.592 246.433 864.092 246.4C862.358 246.367 860.708 245.967 859.142 245.2C857.575 244.4 856.192 243.317 854.992 241.95C853.792 240.583 852.842 238.967 852.142 237.1C851.442 235.2 851.092 233.133 851.092 230.9C851.092 228 851.492 225.433 852.292 223.2C853.092 220.933 854.175 219.033 855.542 217.5C856.942 215.933 858.542 214.75 860.342 213.95C862.142 213.15 864.042 212.75 866.042 212.75C867.008 212.75 867.992 212.867 868.992 213.1C869.992 213.333 870.892 213.617 871.692 213.95C872.525 214.25 873.192 214.6 873.692 215C874.225 215.367 874.492 215.7 874.492 216C874.492 216.333 874.208 216.667 873.642 217C873.075 217.333 872.408 217.5 871.642 217.5C871.275 217.5 870.908 217.467 870.542 217.4C870.208 217.333 869.842 217.25 869.442 217.15C869.042 217.05 868.592 216.967 868.092 216.9C867.592 216.833 867.008 216.8 866.342 216.8C864.842 216.8 863.475 217.1 862.242 217.7C861.008 218.267 859.942 219.1 859.042 220.2C858.175 221.267 857.492 222.583 856.992 224.15C856.492 225.717 856.242 227.483 856.242 229.45C856.242 231.117 856.442 232.667 856.842 234.1C857.275 235.5 857.842 236.75 858.542 237.85C859.242 238.917 860.058 239.8 860.992 240.5C861.958 241.2 862.975 241.633 864.042 241.8C864.675 241.9 865.392 241.933 866.192 241.9C867.025 241.833 867.858 241.667 868.692 241.4C869.525 241.1 870.308 240.7 871.042 240.2C871.808 239.667 872.458 238.983 872.992 238.15V233.6ZM899.726 228.55C901.393 228.417 903.01 228.3 904.576 228.2C906.176 228.1 907.776 228.033 909.376 228C910.31 227.967 911.01 228.083 911.476 228.35C911.943 228.583 912.193 228.783 912.226 228.95C912.26 229.217 912.193 229.55 912.026 229.95C911.893 230.35 911.676 230.75 911.376 231.15C911.076 231.55 910.726 231.9 910.326 232.2C909.926 232.467 909.51 232.6 909.076 232.6C907.576 232.6 905.993 232.583 904.326 232.55C902.693 232.483 901.126 232.417 899.626 232.35C899.66 234.15 899.576 235.967 899.376 237.8C899.21 239.6 898.993 241.05 898.726 242.15C899.26 242.217 900.11 242.283 901.276 242.35C902.443 242.417 903.926 242.45 905.726 242.45C907.393 242.45 908.876 242.367 910.176 242.2C911.476 242 912.66 241.8 913.726 241.6C913.926 241.8 914.01 242.067 913.976 242.4C913.976 242.733 913.91 243.083 913.776 243.45C913.643 243.783 913.476 244.1 913.276 244.4C913.076 244.667 912.893 244.85 912.726 244.95C912.26 245.217 911.343 245.533 909.976 245.9C908.61 246.233 906.993 246.433 905.126 246.5C904.46 246.533 903.743 246.533 902.976 246.5C902.243 246.5 901.526 246.467 900.826 246.4C900.126 246.367 899.476 246.3 898.876 246.2C898.31 246.133 897.876 246.067 897.576 246C897.443 246.2 897.26 246.4 897.026 246.6C896.793 246.8 896.526 246.967 896.226 247.1C895.96 247.267 895.66 247.383 895.326 247.45C895.026 247.517 894.743 247.5 894.476 247.4C894.243 247.3 894.093 247.133 894.026 246.9C893.993 246.667 893.993 246.383 894.026 246.05C894.06 245.75 894.11 245.417 894.176 245.05C894.276 244.683 894.36 244.317 894.426 243.95C894.726 241.717 894.91 239.483 894.976 237.25C895.076 235.017 895.126 232.833 895.126 230.7C895.126 228.567 895.093 226.5 895.026 224.5C894.96 222.5 894.91 220.6 894.876 218.8C894.176 218.533 893.56 218.2 893.026 217.8C892.493 217.367 892.11 216.833 891.876 216.2C891.81 216 891.826 215.8 891.926 215.6C892.026 215.4 892.16 215.233 892.326 215.1C892.526 214.933 892.726 214.817 892.926 214.75C893.126 214.65 893.276 214.617 893.376 214.65C894.576 215.15 895.926 215.4 897.426 215.4C899.76 215.367 901.926 215.25 903.926 215.05C905.96 214.817 908.093 214.6 910.326 214.4C910.56 214.367 910.843 214.383 911.176 214.45C911.543 214.483 911.876 214.55 912.176 214.65C912.51 214.75 912.776 214.883 912.976 215.05C913.21 215.183 913.326 215.35 913.326 215.55C913.326 215.817 913.226 216.117 913.026 216.45C912.826 216.783 912.576 217.117 912.276 217.45C911.976 217.75 911.626 218.033 911.226 218.3C910.86 218.533 910.51 218.683 910.176 218.75C908.376 218.917 906.643 219.033 904.976 219.1C903.343 219.133 901.56 219.15 899.626 219.15L899.726 228.55Z" fill="#89664C"/>
<path d="M335 178L989.406 176.849" stroke="#3F2E29" stroke-width="10"/>
<g clip-path="url(#clip0_8_45)">
<path d="M25.3131 167.263L229.224 239.406V197.756L25.3131 125.613V167.263Z" fill="#594640"/>
<path d="M229.224 239.406L300.007 189.947V148.297L229.224 197.756V239.406Z" fill="#3F2E29"/>
<path d="M0 112.597L25.3131 167.263V125.613L0 70.9469V112.597Z" fill="#6D5650"/>
<path d="M0 70.9469L25.3131 125.613L229.224 197.756L300.007 148.297L150.003 56.4438L61.4076 38.5938L0 70.9469Z" fill="#89664C"/>
<path d="M9.84396 69.0875L33.7508 119.291L228.286 189.575L291.569 147.181L148.128 58.3032L61.4076 41.1969L9.84396 69.0875Z" fill="#DBB471"/>
<path d="M68.9078 67.6L54.3763 75.0375L79.6893 86.9375L56.2513 99.5812L70.3141 106.275L95.1584 93.6312L201.567 138.256L214.224 129.703L109.69 85.0781L133.128 72.4344L119.534 65.7406L93.7521 78.3843L68.9078 67.6Z" fill="#89664C"/>
<path d="M248.912 104.787C234.849 112.225 219.849 118.175 202.973 121.522C194.536 123.009 186.098 124.125 177.66 124.125C173.441 124.125 169.223 124.125 164.535 123.753C162.191 123.381 160.316 123.381 157.972 123.009C157.035 123.009 155.629 122.637 154.691 122.266C153.754 121.894 152.816 121.894 151.41 121.522L153.754 116.316C154.222 116.687 155.629 116.687 156.566 117.059C157.504 117.431 158.441 117.431 159.379 117.803C161.254 118.175 163.129 118.547 165.473 118.919C169.223 119.662 173.441 120.034 177.66 120.034C185.629 120.406 194.067 120.034 202.036 118.919C218.911 116.316 234.38 111.481 248.912 104.787Z" fill="#75A843"/>
<path d="M209.067 110.738C208.13 119.663 198.755 120.778 198.755 120.778C198.755 120.778 188.911 117.059 190.317 108.134C191.254 102.184 201.567 93.2594 201.567 93.2594C201.567 93.2594 210.005 104.788 209.067 110.738Z" fill="#83BF4F"/>
<path d="M238.599 99.2094C228.286 107.391 222.661 111.109 225.943 117.803C229.224 124.497 256.412 127.844 258.287 115.572C260.162 103.3 270.006 100.697 270.006 100.697C270.006 100.697 255.475 85.8219 238.599 99.2094Z" fill="#871212"/>
<path d="M246.568 120.778C232.037 119.662 225.005 121.522 221.255 114.828C217.974 108.134 239.537 85.8218 249.849 95.4906C262.037 107.391 270.475 108.878 270.475 108.878C270.475 108.878 268.131 122.266 246.568 120.778Z" fill="#991D1D"/>
<path d="M257.818 118.175C262.975 116.316 257.818 96.9781 264.381 91.0281C264.381 91.0281 252.193 85.0781 246.099 91.0281C242.349 94.375 240.474 123.753 257.818 118.175Z" fill="#991D1D"/>
<path d="M248.443 109.994C237.193 126.728 224.068 124.125 219.38 115.2C214.692 106.275 220.318 92.8875 234.38 91.0281C248.443 89.1688 256.881 82.1031 256.881 82.1031C256.881 82.1031 256.881 96.9781 248.443 109.994Z" fill="#AD2727"/>
<path d="M244.224 99.2094C222.193 91.7719 214.692 106.647 219.38 115.572C224.068 124.497 238.13 128.216 250.787 124.125C263.444 119.663 272.819 120.034 272.819 120.034C272.819 120.034 260.162 104.416 244.224 99.2094Z" fill="#CC3636"/>
<path d="M225.005 114.084C232.505 127.844 222.661 124.125 217.974 115.2C206.723 92.8875 231.099 85.8219 231.099 85.8219C231.099 85.8219 218.442 101.813 225.005 114.084Z" fill="#75A843"/>
<path d="M225.005 114.084C221.255 111.109 213.755 102.184 216.099 111.481C220.786 130.447 251.724 128.216 251.724 128.216C251.724 128.216 236.255 123.381 225.005 114.084Z" fill="#83BF4F"/>
<path d="M249.381 140.859C232.974 137.512 217.505 132.306 203.442 124.497C196.411 120.778 189.848 115.944 184.223 111.109C181.41 108.506 178.598 105.903 176.254 102.928C174.848 101.441 173.91 99.9531 172.504 98.4656L171.098 96.2344C170.629 95.4906 170.16 94.7469 169.691 93.6312L176.254 91.7719C176.723 92.5156 176.723 93.2594 177.192 94.0031L178.598 96.2344C179.535 97.7219 180.473 99.2094 181.41 100.325C183.754 103.3 186.098 105.903 188.442 108.506C193.598 113.712 199.692 118.175 205.786 122.637C218.442 130.447 233.443 136.769 249.381 140.859Z" fill="#75A843"/>
<path d="M247.506 130.819C232.974 130.075 225.943 128.959 221.724 135.653C217.974 142.347 232.974 160.941 245.631 153.503C257.818 146.438 267.194 150.528 267.194 150.528C267.194 150.528 270.944 132.306 247.506 130.819Z" fill="#871212"/>
<path d="M232.974 150.156C224.068 140.859 217.505 137.513 221.724 130.819C225.474 124.125 260.631 122.638 258.756 134.909C255.943 150.528 260.162 156.106 260.162 156.106C260.162 156.106 246.099 164.288 232.974 150.156Z" fill="#991D1D"/>
<path d="M242.818 154.991C247.974 156.85 262.506 140.859 271.881 140.859C271.881 140.859 269.537 129.331 259.693 129.703C254.537 130.075 226.411 148.669 242.818 154.991Z" fill="#AD2727"/>
<path d="M244.224 143.834C221.255 148.297 214.692 138.628 219.849 129.703C225.005 120.778 240.943 115.2 251.724 122.637C262.506 129.703 275.163 130.447 275.163 130.447C275.163 130.447 261.568 140.487 244.224 143.834Z" fill="#E24B4B"/>
<path d="M251.256 134.538C243.287 116.316 224.536 121.522 219.38 130.447C214.224 139.372 220.318 150.156 232.505 154.991C245.162 159.825 251.256 165.403 251.256 165.403C251.256 165.403 256.881 147.553 251.256 134.538Z" fill="#F25151"/>
<path d="M224.536 132.678C216.567 146.437 213.755 137.884 218.911 128.959C231.568 107.391 254.537 117.059 254.537 117.059C254.537 117.059 231.568 120.778 224.536 132.678Z" fill="#75A843"/>
<path d="M224.536 132.678C225.005 128.216 227.818 117.803 220.786 125.612C206.723 140.859 229.224 158.337 229.224 158.337C229.224 158.337 223.599 145.694 224.536 132.678Z" fill="#83BF4F"/>
<path d="M28.1256 155.734L223.599 224.903V217.466L28.1256 148.297V155.734Z" fill="#B7925E"/>
<path d="M39.3759 169.122L51.0949 173.213V144.95L39.3759 140.488V169.122Z" fill="#DBB471"/>
<path d="M51.0949 173.213L57.1888 170.609V166.891L54.3762 165.775V160.569L57.1888 159.453V142.347L51.0949 144.95V173.213Z" fill="#3F2E29"/>
<path d="M39.3759 140.487L51.0949 144.95L57.1888 142.347L45.001 138.256L39.3759 140.487Z" fill="#89664C"/>
<path d="M198.755 224.531L210.474 228.994V200.731L198.755 196.269V224.531Z" fill="#DBB471"/>
<path d="M210.474 228.994L216.567 226.019V222.3L213.755 221.184V215.978L216.567 214.862V197.756L210.474 200.731V228.994Z" fill="#3F2E29"/>
<path d="M198.755 196.269L210.474 200.731L216.567 197.756L204.38 193.666L198.755 196.269Z" fill="#89664C"/>
</g>
<defs>
<clipPath id="clip0_8_45">
<rect width="300.007" height="238" fill="white" transform="translate(0 20)"/>
</clipPath>
</defs>
</svg>
