<svg width="1030" height="298" viewBox="0 0 1030 298" fill="none" xmlns="http://www.w3.org/2000/svg">
<path d="M410.31 113.35C410.31 119.75 408.76 125.2 405.66 129.7C402.56 134.1 398.11 137.5 392.31 139.9C386.61 142.3 379.86 143.5 372.06 143.5C368.06 143.5 364.21 143.3 360.51 142.9C356.91 142.5 353.61 141.95 350.61 141.25C347.61 140.45 344.96 139.5 342.66 138.4V125.5C346.26 127.1 350.71 128.55 356.01 129.85C361.41 131.15 366.96 131.8 372.66 131.8C377.96 131.8 382.41 131.1 386.01 129.7C389.61 128.3 392.31 126.3 394.11 123.7C395.91 121.1 396.81 118.05 396.81 114.55C396.81 111.05 396.06 108.1 394.56 105.7C393.06 103.3 390.46 101.1 386.76 99.1C383.16 97 378.11 94.8 371.61 92.5C367.01 90.8 362.96 89 359.46 87.1C356.06 85.1 353.21 82.85 350.91 80.35C348.61 77.85 346.86 75 345.66 71.8C344.56 68.6 344.01 64.9 344.01 60.7C344.01 55 345.46 50.15 348.36 46.15C351.26 42.05 355.26 38.9 360.36 36.7C365.56 34.5 371.51 33.4 378.21 33.4C384.11 33.4 389.51 33.95 394.41 35.05C399.31 36.15 403.76 37.6 407.76 39.4L403.56 50.95C399.86 49.35 395.81 48 391.41 46.9C387.11 45.8 382.61 45.25 377.91 45.25C373.41 45.25 369.66 45.9 366.66 47.2C363.66 48.5 361.41 50.35 359.91 52.75C358.41 55.05 357.66 57.75 357.66 60.85C357.66 64.45 358.41 67.45 359.91 69.85C361.41 72.25 363.86 74.4 367.26 76.3C370.66 78.2 375.26 80.25 381.06 82.45C387.36 84.75 392.66 87.25 396.96 89.95C401.36 92.55 404.66 95.7 406.86 99.4C409.16 103.1 410.31 107.75 410.31 113.35ZM370.86 24.4C369.56 22.1 367.81 19.65 365.61 17.05C363.41 14.35 361.11 11.7 358.71 9.09999C356.31 6.49999 354.21 4.24999 352.41 2.34999V0.39999H361.41C364.01 2.09999 366.71 4.14999 369.51 6.54999C372.31 8.94999 374.96 11.5 377.46 14.2C380.16 11.5 382.91 8.94999 385.71 6.54999C388.51 4.14999 391.21 2.09999 393.81 0.39999H403.11V2.34999C401.21 4.24999 399.01 6.49999 396.51 9.09999C394.11 11.7 391.76 14.35 389.46 17.05C387.26 19.65 385.56 22.1 384.36 24.4H370.86ZM479.735 58.9C476.135 59 472.485 59.05 468.785 59.05C465.085 59.05 461.635 58.9 458.435 58.6C457.935 58.6 457.135 58.35 456.035 57.85C455.035 57.35 453.985 56.75 452.885 56.05C451.785 55.35 450.785 54.6 449.885 53.8C449.085 52.9 448.685 52.05 448.685 51.25C448.685 50.65 448.935 50.2 449.435 49.9C449.935 49.5 450.535 49.2 451.235 49C452.035 48.8 452.835 48.65 453.635 48.55C454.535 48.35 455.285 48.25 455.885 48.25C457.485 48.15 460.185 48 463.985 47.8C467.885 47.6 472.185 47.4 476.885 47.2C481.585 46.9 486.385 46.7 491.285 46.6C496.285 46.4 500.685 46.2 504.485 46C504.785 46 505.585 46 506.885 46C508.185 46 509.485 46.1 510.785 46.3C512.185 46.5 513.435 46.8 514.535 47.2C515.735 47.6 516.335 48.25 516.335 49.15C516.335 49.75 516.135 50.5 515.735 51.4C515.335 52.3 514.785 53.15 514.085 53.95C513.385 54.75 512.585 55.5 511.685 56.2C510.785 56.8 509.885 57.2 508.985 57.4C507.285 57.7 505.285 57.95 502.985 58.15C500.685 58.25 497.635 58.3 493.835 58.3V96.55C493.835 99.75 493.585 103.65 493.085 108.25C492.585 112.85 491.785 117.45 490.685 122.05C489.585 126.55 488.135 130.7 486.335 134.5C484.635 138.3 482.585 140.95 480.185 142.45C479.085 143.15 477.835 143.45 476.435 143.35C475.135 143.35 474.235 143.15 473.735 142.75C473.235 142.35 473.135 141.75 473.435 140.95C473.735 140.15 473.985 139.5 474.185 139C475.385 135.9 476.335 132.55 477.035 128.95C477.835 125.25 478.435 121.5 478.835 117.7C479.235 113.9 479.485 110.1 479.585 106.3C479.685 102.4 479.735 98.7 479.735 95.2V58.9ZM574.476 89.65C579.476 89.25 584.326 88.9 589.026 88.6C593.826 88.3 598.626 88.1 603.426 88C606.226 87.9 608.326 88.25 609.726 89.05C611.126 89.75 611.876 90.35 611.976 90.85C612.076 91.65 611.876 92.65 611.376 93.85C610.976 95.05 610.326 96.25 609.426 97.45C608.526 98.65 607.476 99.7 606.276 100.6C605.076 101.4 603.826 101.8 602.526 101.8C598.026 101.8 593.276 101.75 588.276 101.65C583.376 101.45 578.676 101.25 574.176 101.05C574.276 106.45 574.026 111.9 573.426 117.4C572.926 122.8 572.276 127.15 571.476 130.45C573.076 130.65 575.626 130.85 579.126 131.05C582.626 131.25 587.076 131.35 592.476 131.35C597.476 131.35 601.926 131.1 605.826 130.6C609.726 130 613.276 129.4 616.476 128.8C617.076 129.4 617.326 130.2 617.226 131.2C617.226 132.2 617.026 133.25 616.626 134.35C616.226 135.35 615.726 136.3 615.126 137.2C614.526 138 613.976 138.55 613.476 138.85C612.076 139.65 609.326 140.6 605.226 141.7C601.126 142.7 596.276 143.3 590.676 143.5C588.676 143.6 586.526 143.6 584.226 143.5C582.026 143.5 579.876 143.4 577.776 143.2C575.676 143.1 573.726 142.9 571.926 142.6C570.226 142.4 568.926 142.2 568.026 142C567.626 142.6 567.076 143.2 566.376 143.8C565.676 144.4 564.876 144.9 563.976 145.3C563.176 145.8 562.276 146.15 561.276 146.35C560.376 146.55 559.526 146.5 558.726 146.2C558.026 145.9 557.576 145.4 557.376 144.7C557.276 144 557.276 143.15 557.376 142.15C557.476 141.25 557.626 140.25 557.826 139.15C558.126 138.05 558.376 136.95 558.576 135.85C559.476 129.15 560.026 122.45 560.226 115.75C560.526 109.05 560.676 102.5 560.676 96.1C560.676 89.7 560.576 83.5 560.376 77.5C560.176 71.5 560.026 65.8 559.926 60.4C557.826 59.6 555.976 58.6 554.376 57.4C552.776 56.1 551.626 54.5 550.926 52.6C550.726 52 550.776 51.4 551.076 50.8C551.376 50.2 551.776 49.7 552.276 49.3C552.876 48.8 553.476 48.45 554.076 48.25C554.676 47.95 555.126 47.85 555.426 47.95C559.026 49.45 563.076 50.2 567.576 50.2C574.576 50.1 581.076 49.75 587.076 49.15C593.176 48.45 599.576 47.8 606.276 47.2C606.976 47.1 607.826 47.15 608.826 47.35C609.926 47.45 610.926 47.65 611.826 47.95C612.826 48.25 613.626 48.65 614.226 49.15C614.926 49.55 615.276 50.05 615.276 50.65C615.276 51.45 614.976 52.35 614.376 53.35C613.776 54.35 613.026 55.35 612.126 56.35C611.226 57.25 610.176 58.1 608.976 58.9C607.876 59.6 606.826 60.05 605.826 60.25C600.426 60.75 595.226 61.1 590.226 61.3C585.326 61.4 579.976 61.45 574.176 61.45L574.476 89.65ZM659.346 58.15C658.246 58.05 657.046 57.7 655.746 57.1C654.446 56.4 653.246 55.6 652.146 54.7C651.146 53.8 650.346 52.85 649.746 51.85C649.146 50.75 649.046 49.65 649.446 48.55C649.746 47.75 650.796 47.5 652.596 47.8C654.496 48 656.746 48.15 659.346 48.25C662.346 48.35 665.746 48.3 669.546 48.1C673.346 47.9 677.246 47.65 681.246 47.35C685.346 47.05 689.396 46.7 693.396 46.3C697.496 45.8 701.246 45.3 704.646 44.8C705.346 44.7 706.246 44.75 707.346 44.95C708.446 45.15 709.496 45.45 710.496 45.85C711.496 46.15 712.346 46.55 713.046 47.05C713.846 47.55 714.246 48.1 714.246 48.7C714.246 49.3 713.996 50.05 713.496 50.95C712.996 51.85 712.296 52.8 711.396 53.8C710.496 54.7 709.396 55.55 708.096 56.35C706.796 57.15 705.396 57.65 703.896 57.85C701.296 58.25 698.796 58.6 696.396 58.9C694.096 59.1 691.746 59.25 689.346 59.35C686.946 59.45 684.446 59.55 681.846 59.65C679.246 59.65 676.396 59.65 673.296 59.65C673.396 64.25 673.496 68.75 673.596 73.15C673.696 77.55 673.646 81.5 673.446 85C676.446 84.9 679.146 84.8 681.546 84.7C684.046 84.5 686.446 84.35 688.746 84.25C691.046 84.05 693.346 83.85 695.646 83.65C698.046 83.45 700.596 83.2 703.296 82.9C703.896 82.8 704.696 82.7 705.696 82.6C706.696 82.4 707.696 82.3 708.696 82.3C709.796 82.2 710.796 82.25 711.696 82.45C712.596 82.65 713.146 83.1 713.346 83.8C713.746 85 713.596 86.4 712.896 88C712.196 89.6 711.196 91.15 709.896 92.65C708.696 94.05 707.346 95.25 705.846 96.25C704.346 97.25 703.096 97.75 702.096 97.75H673.446C673.446 101.05 673.346 104.7 673.146 108.7C673.046 112.7 672.796 116.3 672.396 119.5C671.996 123 671.296 126.3 670.296 129.4C669.396 132.4 668.396 135.05 667.296 137.35C666.196 139.65 665.096 141.45 663.996 142.75C662.896 144.15 661.946 144.85 661.146 144.85C660.446 144.85 659.546 144.2 658.446 142.9C657.346 141.7 656.796 140.4 656.796 139C656.796 138.9 656.946 138.25 657.246 137.05C657.546 135.85 657.746 134.9 657.846 134.2C658.146 131.8 658.396 129.65 658.596 127.75C658.796 125.85 658.946 123.95 659.046 122.05C659.146 120.15 659.196 118.15 659.196 116.05C659.296 113.85 659.346 111.3 659.346 108.4V58.15ZM803.19 43C809.49 43 814.94 44.4 819.54 47.2C824.24 49.9 828.09 53.5 831.09 58C834.19 62.4 836.49 67.4 837.99 73C839.49 78.5 840.24 84.05 840.24 89.65C840.24 96.45 839.19 103.05 837.09 109.45C834.99 115.75 831.94 121.35 827.94 126.25C824.04 131.05 819.24 134.9 813.54 137.8C807.94 140.7 801.64 142.15 794.64 142.15C787.84 142.15 781.89 140.95 776.79 138.55C771.69 136.15 767.39 132.85 763.89 128.65C760.49 124.35 757.94 119.35 756.24 113.65C754.54 107.85 753.69 101.55 753.69 94.75C753.69 87.55 754.74 80.8 756.84 74.5C759.04 68.2 762.24 62.75 766.44 58.15C770.64 53.45 775.79 49.75 781.89 47.05C788.09 44.35 795.19 43 803.19 43ZM800.79 54.7C795.19 54.7 790.24 55.95 785.94 58.45C781.74 60.95 778.19 64.2 775.29 68.2C772.39 72.2 770.19 76.65 768.69 81.55C767.19 86.45 766.44 91.3 766.44 96.1C766.44 99.6 766.94 103.3 767.94 107.2C769.04 111 770.74 114.5 773.04 117.7C775.44 120.9 778.54 123.55 782.34 125.65C786.14 127.75 790.74 128.8 796.14 128.8C801.24 128.8 805.74 127.5 809.64 124.9C813.54 122.3 816.74 119 819.24 115C821.84 110.9 823.79 106.45 825.09 101.65C826.39 96.75 827.04 92.05 827.04 87.55C827.04 83.75 826.49 79.9 825.39 76C824.29 72.1 822.64 68.6 820.44 65.5C818.34 62.3 815.64 59.7 812.34 57.7C809.04 55.7 805.19 54.7 800.79 54.7ZM885.563 56.05C883.863 56.05 882.263 55.9 880.763 55.6C879.363 55.2 878.413 54.55 877.913 53.65C877.813 53.25 877.763 52.75 877.763 52.15C877.863 51.45 878.013 50.8 878.213 50.2C878.413 49.5 878.613 48.9 878.813 48.4C879.113 47.8 879.413 47.4 879.713 47.2C881.713 46.1 883.963 45.35 886.463 44.95C889.063 44.45 891.513 44.2 893.813 44.2C895.313 44.2 896.513 44.75 897.413 45.85C898.413 46.95 899.313 48 900.113 49C901.113 50.5 901.813 53.05 902.213 56.65C902.613 60.25 902.813 64.15 902.813 68.35C902.913 72.45 902.863 76.45 902.663 80.35C902.563 84.15 902.513 87.1 902.513 89.2C903.813 88.7 904.963 88.2 905.963 87.7C907.063 87.2 908.313 86.5 909.713 85.6C912.013 83.2 914.263 80.55 916.463 77.65C918.763 74.75 920.863 71.95 922.763 69.25C924.763 66.45 926.513 63.85 928.013 61.45C929.513 59.05 930.713 57.15 931.613 55.75C932.913 52.05 934.363 49.5 935.963 48.1C937.663 46.7 938.963 46 939.863 46C941.163 46 942.013 46.45 942.413 47.35C942.913 48.25 943.163 49.1 943.163 49.9C943.163 54.2 942.413 57.95 940.913 61.15C939.413 64.35 937.563 67.7 935.363 71.2C933.663 73.9 932.163 76.35 930.863 78.55C929.563 80.65 928.313 82.6 927.113 84.4C925.913 86.2 924.663 87.9 923.363 89.5C922.163 91.1 920.813 92.65 919.313 94.15C921.413 97.35 923.463 100.85 925.463 104.65C927.463 108.35 929.213 111.75 930.713 114.85C931.713 116.85 932.863 119.05 934.163 121.45C935.563 123.75 937.063 125.95 938.663 128.05C940.363 130.15 942.113 131.95 943.913 133.45C945.813 134.95 947.763 135.85 949.763 136.15C950.563 136.25 951.113 136.7 951.413 137.5C951.713 138.3 951.863 139.05 951.863 139.75C951.863 140.25 951.563 140.75 950.963 141.25C950.463 141.75 949.763 142.2 948.863 142.6C948.063 143 947.213 143.35 946.313 143.65C945.513 143.95 944.813 144.1 944.213 144.1C942.013 144.1 939.763 143.4 937.463 142C935.163 140.7 932.913 139.05 930.713 137.05C928.513 134.95 926.413 132.75 924.413 130.45C922.513 128.05 920.863 125.85 919.463 123.85C915.863 118.45 913.163 113.85 911.363 110.05C909.563 106.25 908.063 103.5 906.863 101.8L902.513 103.6C902.513 105.6 902.513 107.2 902.513 108.4C902.513 109.5 902.463 110.55 902.363 111.55C902.263 112.55 902.163 113.6 902.063 114.7C901.963 115.8 901.813 117.3 901.613 119.2C901.513 119.6 901.363 120.5 901.163 121.9C900.963 123.2 900.663 124.75 900.263 126.55C899.963 128.35 899.513 130.3 898.913 132.4C898.413 134.4 897.813 136.3 897.113 138.1C896.413 139.8 895.563 141.2 894.563 142.3C893.663 143.4 892.613 143.95 891.413 143.95C890.613 143.95 889.563 143.5 888.263 142.6C887.063 141.8 886.463 140.6 886.463 139C886.463 138.8 886.463 138.45 886.463 137.95C886.563 137.45 886.663 137.1 886.763 136.9C886.863 136.5 886.963 135 887.063 132.4C887.263 129.8 887.463 126.4 887.663 122.2C887.863 118 888.013 113.2 888.113 107.8C888.213 102.3 888.313 96.65 888.413 90.85C888.513 84.95 888.563 79.05 888.563 73.15C888.563 67.15 888.513 61.45 888.413 56.05H885.563Z" fill="#89664C"/>
<path d="M378.939 220.75C378.939 220.517 378.773 220.3 378.439 220.1C378.139 219.9 377.806 219.65 377.439 219.35C377.073 219.05 376.723 218.7 376.389 218.3C376.089 217.867 375.939 217.317 375.939 216.65C375.939 216.35 375.989 216.133 376.089 216C376.189 215.867 376.306 215.767 376.439 215.7C376.573 215.633 376.706 215.6 376.839 215.6C376.973 215.6 377.089 215.6 377.189 215.6C377.723 215.6 378.289 215.683 378.889 215.85C379.523 215.983 380.106 216.183 380.639 216.45C381.206 216.683 381.706 216.95 382.139 217.25C382.606 217.55 382.939 217.85 383.139 218.15C383.906 217.683 384.839 217.367 385.939 217.2C387.073 217 388.156 216.9 389.189 216.9C390.589 216.9 391.906 217.1 393.139 217.5C394.406 217.9 395.523 218.533 396.489 219.4C397.589 220.4 398.356 221.633 398.789 223.1C399.256 224.567 399.489 226 399.489 227.4C399.489 228.9 399.073 230.183 398.239 231.25C397.406 232.283 396.356 233.133 395.089 233.8C393.856 234.467 392.523 234.967 391.089 235.3C389.656 235.6 388.339 235.75 387.139 235.75C386.039 235.75 385.373 235.617 385.139 235.35C384.906 235.05 384.789 234.8 384.789 234.6C384.789 234.367 385.039 234.15 385.539 233.95C386.039 233.717 386.656 233.467 387.389 233.2C388.123 232.933 388.923 232.633 389.789 232.3C390.689 231.933 391.506 231.5 392.239 231C392.973 230.5 393.589 229.917 394.089 229.25C394.589 228.583 394.839 227.783 394.839 226.85C394.839 226.25 394.706 225.567 394.439 224.8C394.173 224.033 393.773 223.317 393.239 222.65C392.706 221.95 392.039 221.367 391.239 220.9C390.473 220.4 389.589 220.15 388.589 220.15C387.723 220.15 386.873 220.267 386.039 220.5C385.206 220.733 384.373 221.117 383.539 221.65C383.539 223.083 383.556 224.717 383.589 226.55C383.623 228.35 383.639 230.1 383.639 231.8C383.639 233.5 383.589 235.167 383.489 236.8C383.423 238.433 383.339 240 383.239 241.5C383.206 242.2 383.089 243.033 382.889 244C382.723 244.933 382.473 245.833 382.139 246.7C381.839 247.533 381.489 248.25 381.089 248.85C380.723 249.45 380.323 249.75 379.889 249.75C379.823 249.75 379.706 249.717 379.539 249.65C379.406 249.583 379.256 249.467 379.089 249.3C378.923 249.167 378.756 248.983 378.589 248.75C378.456 248.517 378.373 248.25 378.339 247.95C378.473 247.35 378.623 246.417 378.789 245.15C378.956 243.85 379.056 242.517 379.089 241.15C379.123 239.883 379.139 238.467 379.139 236.9C379.173 235.333 379.173 233.683 379.139 231.95C379.139 230.183 379.123 228.35 379.089 226.45C379.056 224.55 379.006 222.65 378.939 220.75ZM429.236 216C431.336 216 433.152 216.467 434.686 217.4C436.252 218.3 437.536 219.5 438.536 221C439.569 222.467 440.336 224.133 440.836 226C441.336 227.833 441.586 229.683 441.586 231.55C441.586 233.817 441.236 236.017 440.536 238.15C439.836 240.25 438.819 242.117 437.486 243.75C436.186 245.35 434.586 246.633 432.686 247.6C430.819 248.567 428.719 249.05 426.386 249.05C424.119 249.05 422.136 248.65 420.436 247.85C418.736 247.05 417.302 245.95 416.136 244.55C415.002 243.117 414.152 241.45 413.586 239.55C413.019 237.617 412.736 235.517 412.736 233.25C412.736 230.85 413.086 228.6 413.786 226.5C414.519 224.4 415.586 222.583 416.986 221.05C418.386 219.483 420.102 218.25 422.136 217.35C424.202 216.45 426.569 216 429.236 216ZM428.436 219.9C426.569 219.9 424.919 220.317 423.486 221.15C422.086 221.983 420.902 223.067 419.936 224.4C418.969 225.733 418.236 227.217 417.736 228.85C417.236 230.483 416.986 232.1 416.986 233.7C416.986 234.867 417.152 236.1 417.486 237.4C417.852 238.667 418.419 239.833 419.186 240.9C419.986 241.967 421.019 242.85 422.286 243.55C423.552 244.25 425.086 244.6 426.886 244.6C428.586 244.6 430.086 244.167 431.386 243.3C432.686 242.433 433.752 241.333 434.586 240C435.452 238.633 436.102 237.15 436.536 235.55C436.969 233.917 437.186 232.35 437.186 230.85C437.186 229.583 437.002 228.3 436.636 227C436.269 225.7 435.719 224.533 434.986 223.5C434.286 222.433 433.386 221.567 432.286 220.9C431.186 220.233 429.902 219.9 428.436 219.9ZM477.494 236.6C477.194 236.567 476.91 236.55 476.644 236.55C476.377 236.55 476.077 236.55 475.744 236.55C475.444 236.55 475.077 236.55 474.644 236.55C474.21 236.55 473.694 236.517 473.094 236.45C472.694 236.417 472.26 236.3 471.794 236.1C471.36 235.867 470.944 235.6 470.544 235.3C470.177 235 469.86 234.7 469.594 234.4C469.327 234.067 469.194 233.767 469.194 233.5C469.194 233.233 469.344 233.05 469.644 232.95C469.944 232.817 470.344 232.733 470.844 232.7C471.344 232.667 471.894 232.667 472.494 232.7C473.127 232.7 473.744 232.7 474.344 232.7L481.394 232.85C482.26 232.883 483.094 232.983 483.894 233.15C484.694 233.283 485.11 233.583 485.144 234.05C485.144 234.283 485.044 234.533 484.844 234.8C484.644 235.033 484.377 235.267 484.044 235.5C483.744 235.733 483.394 235.933 482.994 236.1C482.627 236.267 482.26 236.367 481.894 236.4V245.2C481.894 245.933 481.777 246.65 481.544 247.35C481.344 248.017 481.077 248.6 480.744 249.1C480.41 249.633 480.06 250.05 479.694 250.35C479.36 250.65 479.06 250.8 478.794 250.8C478.627 250.8 478.394 250.7 478.094 250.5C477.794 250.3 477.594 250.067 477.494 249.8C477.694 249.3 477.827 248.7 477.894 248C477.96 247.267 477.977 246.517 477.944 245.75C476.344 247.183 474.76 248.167 473.194 248.7C471.627 249.2 470.094 249.433 468.594 249.4C466.86 249.367 465.21 248.967 463.644 248.2C462.077 247.4 460.694 246.317 459.494 244.95C458.294 243.583 457.344 241.967 456.644 240.1C455.944 238.2 455.594 236.133 455.594 233.9C455.594 231 455.994 228.433 456.794 226.2C457.594 223.933 458.677 222.033 460.044 220.5C461.444 218.933 463.044 217.75 464.844 216.95C466.644 216.15 468.544 215.75 470.544 215.75C471.51 215.75 472.494 215.867 473.494 216.1C474.494 216.333 475.394 216.617 476.194 216.95C477.027 217.25 477.694 217.6 478.194 218C478.727 218.367 478.994 218.7 478.994 219C478.994 219.333 478.71 219.667 478.144 220C477.577 220.333 476.91 220.5 476.144 220.5C475.777 220.5 475.41 220.467 475.044 220.4C474.71 220.333 474.344 220.25 473.944 220.15C473.544 220.05 473.094 219.967 472.594 219.9C472.094 219.833 471.51 219.8 470.844 219.8C469.344 219.8 467.977 220.1 466.744 220.7C465.51 221.267 464.444 222.1 463.544 223.2C462.677 224.267 461.994 225.583 461.494 227.15C460.994 228.717 460.744 230.483 460.744 232.45C460.744 234.117 460.944 235.667 461.344 237.1C461.777 238.5 462.344 239.75 463.044 240.85C463.744 241.917 464.56 242.8 465.494 243.5C466.46 244.2 467.477 244.633 468.544 244.8C469.177 244.9 469.894 244.933 470.694 244.9C471.527 244.833 472.36 244.667 473.194 244.4C474.027 244.1 474.81 243.7 475.544 243.2C476.31 242.667 476.96 241.983 477.494 241.15V236.6ZM499.928 220.6C499.928 220.233 499.745 219.917 499.378 219.65C499.045 219.383 498.578 219.183 497.978 219.05C497.745 218.983 497.445 218.917 497.078 218.85C496.745 218.783 496.562 218.633 496.528 218.4C496.528 218.233 496.578 218.067 496.678 217.9C496.812 217.7 496.962 217.517 497.128 217.35C497.295 217.183 497.478 217.05 497.678 216.95C497.878 216.817 498.045 216.733 498.178 216.7C499.545 216.333 500.762 216.333 501.828 216.7C502.895 217.033 503.578 217.533 503.878 218.2C504.745 217.633 505.845 217.133 507.178 216.7C508.512 216.267 509.928 216.05 511.428 216.05C512.995 216.05 514.378 216.333 515.578 216.9C516.778 217.433 517.778 218.167 518.578 219.1C519.412 220 520.028 221.033 520.428 222.2C520.862 223.367 521.078 224.567 521.078 225.8C521.078 226.5 520.962 227.25 520.728 228.05C520.495 228.85 520.095 229.617 519.528 230.35C518.962 231.083 518.178 231.75 517.178 232.35C516.212 232.95 514.962 233.417 513.428 233.75C513.695 236.883 514.628 239.65 516.228 242.05C517.828 244.417 519.928 246.4 522.528 248C522.962 248.3 523.195 248.617 523.228 248.95C523.262 249.25 523.145 249.467 522.878 249.6C522.645 249.733 522.128 249.833 521.328 249.9C520.562 249.967 519.728 249.867 518.828 249.6C517.262 249.1 515.928 248.283 514.828 247.15C513.728 245.983 512.795 244.683 512.028 243.25C511.295 241.783 510.712 240.283 510.278 238.75C509.878 237.183 509.595 235.75 509.428 234.45C508.928 234.483 508.262 234.533 507.428 234.6C506.595 234.633 505.678 234.65 504.678 234.65C504.678 235.817 504.645 236.967 504.578 238.1C504.545 239.233 504.462 240.383 504.328 241.55C504.295 241.85 504.195 242.45 504.028 243.35C503.862 244.217 503.628 245.133 503.328 246.1C503.062 247.067 502.712 247.933 502.278 248.7C501.878 249.433 501.412 249.8 500.878 249.8C500.812 249.8 500.678 249.75 500.478 249.65C500.278 249.583 500.078 249.467 499.878 249.3C499.678 249.133 499.512 248.933 499.378 248.7C499.245 248.467 499.228 248.2 499.328 247.9C499.428 247.6 499.512 247.133 499.578 246.5C499.645 245.867 499.695 245.133 499.728 244.3C499.795 243.467 499.845 242.567 499.878 241.6C499.912 240.633 499.928 239.65 499.928 238.65V220.6ZM504.678 232.1C505.645 231.967 506.778 231.8 508.078 231.6C509.412 231.4 510.678 231.083 511.878 230.65C513.078 230.183 514.095 229.55 514.928 228.75C515.762 227.95 516.178 226.867 516.178 225.5C516.178 225.067 516.078 224.517 515.878 223.85C515.678 223.183 515.328 222.55 514.828 221.95C514.328 221.35 513.662 220.833 512.828 220.4C511.995 219.967 510.945 219.75 509.678 219.75C508.812 219.75 507.962 219.867 507.128 220.1C506.328 220.3 505.462 220.683 504.528 221.25C504.528 223.717 504.545 225.783 504.578 227.45C504.645 229.083 504.678 230.633 504.678 232.1ZM542.402 231.55C544.069 231.417 545.685 231.3 547.252 231.2C548.852 231.1 550.452 231.033 552.052 231C552.985 230.967 553.685 231.083 554.152 231.35C554.619 231.583 554.869 231.783 554.902 231.95C554.935 232.217 554.869 232.55 554.702 232.95C554.569 233.35 554.352 233.75 554.052 234.15C553.752 234.55 553.402 234.9 553.002 235.2C552.602 235.467 552.185 235.6 551.752 235.6C550.252 235.6 548.669 235.583 547.002 235.55C545.369 235.483 543.802 235.417 542.302 235.35C542.335 237.15 542.252 238.967 542.052 240.8C541.885 242.6 541.669 244.05 541.402 245.15C541.935 245.217 542.785 245.283 543.952 245.35C545.119 245.417 546.602 245.45 548.402 245.45C550.069 245.45 551.552 245.367 552.852 245.2C554.152 245 555.335 244.8 556.402 244.6C556.602 244.8 556.685 245.067 556.652 245.4C556.652 245.733 556.585 246.083 556.452 246.45C556.319 246.783 556.152 247.1 555.952 247.4C555.752 247.667 555.569 247.85 555.402 247.95C554.935 248.217 554.019 248.533 552.652 248.9C551.285 249.233 549.669 249.433 547.802 249.5C547.135 249.533 546.419 249.533 545.652 249.5C544.919 249.5 544.202 249.467 543.502 249.4C542.802 249.367 542.152 249.3 541.552 249.2C540.985 249.133 540.552 249.067 540.252 249C540.119 249.2 539.935 249.4 539.702 249.6C539.469 249.8 539.202 249.967 538.902 250.1C538.635 250.267 538.335 250.383 538.002 250.45C537.702 250.517 537.419 250.5 537.152 250.4C536.919 250.3 536.769 250.133 536.702 249.9C536.669 249.667 536.669 249.383 536.702 249.05C536.735 248.75 536.785 248.417 536.852 248.05C536.952 247.683 537.035 247.317 537.102 246.95C537.402 244.717 537.585 242.483 537.652 240.25C537.752 238.017 537.802 235.833 537.802 233.7C537.802 231.567 537.769 229.5 537.702 227.5C537.635 225.5 537.585 223.6 537.552 221.8C536.852 221.533 536.235 221.2 535.702 220.8C535.169 220.367 534.785 219.833 534.552 219.2C534.485 219 534.502 218.8 534.602 218.6C534.702 218.4 534.835 218.233 535.002 218.1C535.202 217.933 535.402 217.817 535.602 217.75C535.802 217.65 535.952 217.617 536.052 217.65C537.252 218.15 538.602 218.4 540.102 218.4C542.435 218.367 544.602 218.25 546.602 218.05C548.635 217.817 550.769 217.6 553.002 217.4C553.235 217.367 553.519 217.383 553.852 217.45C554.219 217.483 554.552 217.55 554.852 217.65C555.185 217.75 555.452 217.883 555.652 218.05C555.885 218.183 556.002 218.35 556.002 218.55C556.002 218.817 555.902 219.117 555.702 219.45C555.502 219.783 555.252 220.117 554.952 220.45C554.652 220.75 554.302 221.033 553.902 221.3C553.535 221.533 553.185 221.683 552.852 221.75C551.052 221.917 549.319 222.033 547.652 222.1C546.019 222.133 544.235 222.15 542.302 222.15L542.402 231.55ZM571.092 221.3C570.825 221.3 570.509 221.3 570.142 221.3C569.775 221.267 569.409 221.233 569.042 221.2C568.709 221.133 568.392 221.067 568.092 221C567.825 220.9 567.675 220.783 567.642 220.65C567.575 220.517 567.575 220.333 567.642 220.1C567.742 219.833 567.859 219.583 567.992 219.35C568.125 219.083 568.259 218.867 568.392 218.7C568.559 218.5 568.692 218.367 568.792 218.3C569.459 218 570.125 217.767 570.792 217.6C571.459 217.433 572.175 217.383 572.942 217.45C573.175 217.45 573.392 217.55 573.592 217.75C573.825 217.917 574.025 218.133 574.192 218.4C574.392 218.633 574.542 218.883 574.642 219.15C574.742 219.383 574.825 219.567 574.892 219.7C575.292 219.367 575.742 219.05 576.242 218.75C576.775 218.45 577.325 218.2 577.892 218C578.459 217.767 579.025 217.6 579.592 217.5C580.159 217.367 580.675 217.283 581.142 217.25C582.375 217.183 583.492 217.3 584.492 217.6C585.492 217.9 586.342 218.35 587.042 218.95C587.775 219.517 588.342 220.233 588.742 221.1C589.142 221.933 589.359 222.867 589.392 223.9C589.425 224.667 589.325 225.467 589.092 226.3C588.859 227.133 588.509 227.95 588.042 228.75C587.609 229.55 587.059 230.3 586.392 231C585.759 231.7 585.025 232.267 584.192 232.7C585.325 232.667 586.425 232.783 587.492 233.05C588.559 233.317 589.492 233.75 590.292 234.35C591.125 234.917 591.775 235.65 592.242 236.55C592.709 237.45 592.925 238.517 592.892 239.75C592.825 240.95 592.492 242.083 591.892 243.15C591.325 244.183 590.492 245.1 589.392 245.9C588.292 246.667 586.959 247.267 585.392 247.7C583.859 248.1 582.092 248.283 580.092 248.25C579.759 248.25 579.309 248.217 578.742 248.15C578.175 248.05 577.609 247.917 577.042 247.75C576.509 247.583 576.042 247.4 575.642 247.2C575.242 246.967 575.042 246.717 575.042 246.45C575.042 246.217 575.225 246.033 575.592 245.9C575.959 245.733 576.392 245.6 576.892 245.5C577.392 245.4 577.909 245.317 578.442 245.25C578.975 245.183 579.392 245.133 579.692 245.1C582.425 244.767 584.475 244.033 585.842 242.9C587.242 241.733 587.909 240.417 587.842 238.95C587.809 238.183 587.609 237.55 587.242 237.05C586.875 236.517 586.392 236.083 585.792 235.75C585.225 235.383 584.559 235.1 583.792 234.9C583.059 234.7 582.292 234.517 581.492 234.35C580.625 234.717 579.775 234.95 578.942 235.05C578.575 235.117 578.192 235.15 577.792 235.15C577.392 235.117 577.159 234.967 577.092 234.7C577.025 234.4 577.142 234.033 577.442 233.6C577.742 233.133 578.125 232.767 578.592 232.5C579.159 232.167 579.792 231.75 580.492 231.25C581.225 230.717 581.909 230.117 582.542 229.45C583.209 228.75 583.742 227.983 584.142 227.15C584.575 226.317 584.775 225.4 584.742 224.4C584.709 223.367 584.309 222.517 583.542 221.85C582.809 221.183 581.825 220.85 580.592 220.85C579.492 220.85 578.475 221.05 577.542 221.45C576.609 221.817 575.842 222.3 575.242 222.9C575.309 224.333 575.375 225.967 575.442 227.8C575.509 229.633 575.542 231.35 575.542 232.95C575.542 234.75 575.459 236.733 575.292 238.9C575.125 241.067 574.809 243.15 574.342 245.15C574.275 245.45 574.142 245.867 573.942 246.4C573.775 246.9 573.559 247.417 573.292 247.95C573.059 248.483 572.792 248.933 572.492 249.3C572.225 249.7 571.975 249.9 571.742 249.9C571.575 249.9 571.392 249.783 571.192 249.55C571.025 249.317 570.875 249.067 570.742 248.8C570.609 248.533 570.492 248.283 570.392 248.05C570.325 247.783 570.292 247.617 570.292 247.55C570.325 247.15 570.375 246.767 570.442 246.4C570.542 246 570.625 245.617 570.692 245.25C570.859 244.35 570.992 243.35 571.092 242.25C571.225 241.117 571.325 239.967 571.392 238.8C571.492 237.633 571.542 236.483 571.542 235.35C571.575 234.183 571.575 233.117 571.542 232.15L571.092 221.3ZM611.842 230.5C611.842 231.1 611.842 231.867 611.842 232.8C611.875 233.733 611.892 234.7 611.892 235.7C611.925 236.667 611.942 237.617 611.942 238.55C611.975 239.45 611.992 240.167 611.992 240.7C611.992 243.567 611.625 245.783 610.892 247.35C610.158 248.917 609.208 249.7 608.042 249.7C607.842 249.7 607.708 249.55 607.642 249.25C607.608 248.95 607.592 248.55 607.592 248.05C607.592 247.55 607.608 247 607.642 246.4C607.675 245.767 607.692 245.117 607.692 244.45C607.692 242.05 607.692 239.017 607.692 235.35C607.692 231.65 607.608 227.55 607.442 223.05C607.408 222.85 607.192 222.467 606.792 221.9C606.425 221.333 606.058 220.733 605.692 220.1C605.325 219.433 605.042 218.817 604.842 218.25C604.675 217.683 604.775 217.317 605.142 217.15C605.642 216.85 606.242 216.817 606.942 217.05C607.642 217.283 608.342 217.65 609.042 218.15C609.742 218.617 610.392 219.15 610.992 219.75C611.625 220.35 612.092 220.867 612.392 221.3C613.492 223 614.492 224.733 615.392 226.5C616.325 228.233 617.242 230 618.142 231.8C619.042 233.6 619.992 235.45 620.992 237.35C621.992 239.217 623.142 241.117 624.442 243.05C624.608 243.317 624.808 243.6 625.042 243.9C625.275 244.2 625.492 244.35 625.692 244.35C625.758 244.35 625.825 244.133 625.892 243.7C625.958 243.267 626.008 242.7 626.042 242C626.075 239.867 626.108 237.783 626.142 235.75C626.208 233.683 626.258 231.717 626.292 229.85C626.325 227.983 626.375 226.233 626.442 224.6C626.508 222.967 626.592 221.467 626.692 220.1C626.725 219.5 626.875 218.917 627.142 218.35C627.408 217.783 627.708 217.283 628.042 216.85C628.408 216.383 628.775 216.017 629.142 215.75C629.542 215.483 629.875 215.35 630.142 215.35C630.375 215.35 630.542 215.517 630.642 215.85C630.775 216.15 630.858 216.567 630.892 217.1C630.958 217.633 630.992 218.25 630.992 218.95C630.992 219.617 630.992 220.317 630.992 221.05C630.992 223.083 630.992 224.917 630.992 226.55C631.025 228.15 631.025 229.7 630.992 231.2C630.992 232.7 630.975 234.25 630.942 235.85C630.908 237.417 630.858 239.2 630.792 241.2C630.725 242.9 630.575 244.267 630.342 245.3C630.142 246.333 629.875 247.15 629.542 247.75C629.242 248.317 628.892 248.717 628.492 248.95C628.125 249.183 627.742 249.333 627.342 249.4C626.242 249.6 625.192 249.467 624.192 249C623.225 248.567 622.342 247.9 621.542 247C620.642 246 619.708 244.733 618.742 243.2C617.808 241.667 616.892 240.05 615.992 238.35C615.125 236.65 614.325 234.967 613.592 233.3C612.858 231.633 612.275 230.167 611.842 228.9V230.5ZM653.164 231.55C654.831 231.417 656.447 231.3 658.014 231.2C659.614 231.1 661.214 231.033 662.814 231C663.747 230.967 664.447 231.083 664.914 231.35C665.381 231.583 665.631 231.783 665.664 231.95C665.697 232.217 665.631 232.55 665.464 232.95C665.331 233.35 665.114 233.75 664.814 234.15C664.514 234.55 664.164 234.9 663.764 235.2C663.364 235.467 662.947 235.6 662.514 235.6C661.014 235.6 659.431 235.583 657.764 235.55C656.131 235.483 654.564 235.417 653.064 235.35C653.097 237.15 653.014 238.967 652.814 240.8C652.647 242.6 652.431 244.05 652.164 245.15C652.697 245.217 653.547 245.283 654.714 245.35C655.881 245.417 657.364 245.45 659.164 245.45C660.831 245.45 662.314 245.367 663.614 245.2C664.914 245 666.097 244.8 667.164 244.6C667.364 244.8 667.447 245.067 667.414 245.4C667.414 245.733 667.347 246.083 667.214 246.45C667.081 246.783 666.914 247.1 666.714 247.4C666.514 247.667 666.331 247.85 666.164 247.95C665.697 248.217 664.781 248.533 663.414 248.9C662.047 249.233 660.431 249.433 658.564 249.5C657.897 249.533 657.181 249.533 656.414 249.5C655.681 249.5 654.964 249.467 654.264 249.4C653.564 249.367 652.914 249.3 652.314 249.2C651.747 249.133 651.314 249.067 651.014 249C650.881 249.2 650.697 249.4 650.464 249.6C650.231 249.8 649.964 249.967 649.664 250.1C649.397 250.267 649.097 250.383 648.764 250.45C648.464 250.517 648.181 250.5 647.914 250.4C647.681 250.3 647.531 250.133 647.464 249.9C647.431 249.667 647.431 249.383 647.464 249.05C647.497 248.75 647.547 248.417 647.614 248.05C647.714 247.683 647.797 247.317 647.864 246.95C648.164 244.717 648.347 242.483 648.414 240.25C648.514 238.017 648.564 235.833 648.564 233.7C648.564 231.567 648.531 229.5 648.464 227.5C648.397 225.5 648.347 223.6 648.314 221.8C647.614 221.533 646.997 221.2 646.464 220.8C645.931 220.367 645.547 219.833 645.314 219.2C645.247 219 645.264 218.8 645.364 218.6C645.464 218.4 645.597 218.233 645.764 218.1C645.964 217.933 646.164 217.817 646.364 217.75C646.564 217.65 646.714 217.617 646.814 217.65C648.014 218.15 649.364 218.4 650.864 218.4C653.197 218.367 655.364 218.25 657.364 218.05C659.397 217.817 661.531 217.6 663.764 217.4C663.997 217.367 664.281 217.383 664.614 217.45C664.981 217.483 665.314 217.55 665.614 217.65C665.947 217.75 666.214 217.883 666.414 218.05C666.647 218.183 666.764 218.35 666.764 218.55C666.764 218.817 666.664 219.117 666.464 219.45C666.264 219.783 666.014 220.117 665.714 220.45C665.414 220.75 665.064 221.033 664.664 221.3C664.297 221.533 663.947 221.683 663.614 221.75C661.814 221.917 660.081 222.033 658.414 222.1C656.781 222.133 654.997 222.15 653.064 222.15L653.164 231.55ZM727.842 236.2C727.842 238.2 727.625 240.067 727.192 241.8C726.759 243.533 726.059 245.05 725.092 246.35C724.159 247.617 722.942 248.6 721.442 249.3C719.942 250.033 718.125 250.383 715.992 250.35C713.925 250.317 712.209 249.9 710.842 249.1C709.509 248.3 708.425 247.25 707.592 245.95C706.792 244.617 706.209 243.1 705.842 241.4C705.475 239.667 705.275 237.883 705.242 236.05C705.209 235.15 705.175 234.25 705.142 233.35C705.142 232.45 705.142 231.517 705.142 230.55C705.142 229.583 705.142 228.55 705.142 227.45C705.142 226.35 705.142 225.167 705.142 223.9C704.875 223.767 704.525 223.6 704.092 223.4C703.692 223.2 703.292 222.983 702.892 222.75C702.492 222.483 702.142 222.217 701.842 221.95C701.575 221.683 701.442 221.4 701.442 221.1C701.442 220.833 701.625 220.617 701.992 220.45C702.359 220.25 702.792 220.1 703.292 220C703.792 219.9 704.309 219.85 704.842 219.85C705.409 219.817 705.892 219.833 706.292 219.9C707.525 220.033 708.492 220.333 709.192 220.8C709.892 221.233 710.242 222.05 710.242 223.25C710.242 225.383 710.242 227.433 710.242 229.4C710.242 231.367 710.259 233.517 710.292 235.85C710.292 237.15 710.392 238.433 710.592 239.7C710.792 240.967 711.142 242.117 711.642 243.15C712.142 244.15 712.809 244.967 713.642 245.6C714.509 246.2 715.609 246.5 716.942 246.5C718.142 246.5 719.142 246.217 719.942 245.65C720.775 245.083 721.442 244.333 721.942 243.4C722.442 242.433 722.792 241.317 722.992 240.05C723.225 238.75 723.342 237.383 723.342 235.95C723.342 234.917 723.342 233.933 723.342 233C723.375 232.033 723.392 231.1 723.392 230.2C723.392 229.267 723.375 228.333 723.342 227.4C723.342 226.433 723.325 225.417 723.292 224.35C723.292 224.017 723.259 223.633 723.192 223.2C723.125 222.733 723.042 222.267 722.942 221.8C722.875 221.333 722.775 220.883 722.642 220.45C722.509 220.017 722.359 219.65 722.192 219.35C722.125 219.217 722.042 219.033 721.942 218.8C721.842 218.567 721.759 218.333 721.692 218.1C721.659 217.867 721.642 217.65 721.642 217.45C721.642 217.217 721.709 217.033 721.842 216.9C722.009 216.733 722.259 216.683 722.592 216.75C722.925 216.783 723.259 216.883 723.592 217.05C723.959 217.217 724.309 217.433 724.642 217.7C725.009 217.933 725.292 218.167 725.492 218.4C725.959 218.9 726.342 219.467 726.642 220.1C726.942 220.7 727.175 221.333 727.342 222C727.542 222.667 727.675 223.35 727.742 224.05C727.809 224.717 727.842 225.35 727.842 225.95V236.2ZM742.626 225.4C742.626 223.967 742.876 222.683 743.376 221.55C743.909 220.383 744.643 219.417 745.576 218.65C746.509 217.883 747.609 217.317 748.876 216.95C750.143 216.55 751.526 216.367 753.026 216.4C754.593 216.467 755.993 216.767 757.226 217.3C758.459 217.8 759.426 218.383 760.126 219.05C760.359 219.25 760.609 219.533 760.876 219.9C761.176 220.267 761.409 220.65 761.576 221.05C761.776 221.45 761.876 221.833 761.876 222.2C761.909 222.567 761.776 222.85 761.476 223.05C761.276 223.217 761.009 223.3 760.676 223.3C760.376 223.3 760.059 223.267 759.726 223.2C759.393 223.1 759.076 222.983 758.776 222.85C758.476 222.683 758.243 222.533 758.076 222.4C757.376 221.833 756.543 221.383 755.576 221.05C754.643 220.683 753.793 220.483 753.026 220.45C752.026 220.417 751.143 220.517 750.376 220.75C749.609 220.95 748.959 221.25 748.426 221.65C747.926 222.05 747.543 222.517 747.276 223.05C747.009 223.55 746.876 224.067 746.876 224.6C746.876 225.533 747.243 226.35 747.976 227.05C748.709 227.717 749.509 228.25 750.376 228.65C751.309 229.05 752.276 229.467 753.276 229.9C754.309 230.3 755.326 230.75 756.326 231.25C757.326 231.75 758.276 232.3 759.176 232.9C760.076 233.5 760.859 234.2 761.526 235C762.226 235.767 762.776 236.667 763.176 237.7C763.576 238.7 763.776 239.85 763.776 241.15C763.776 242.217 763.543 243.267 763.076 244.3C762.609 245.3 761.943 246.217 761.076 247.05C760.209 247.883 759.143 248.567 757.876 249.1C756.643 249.633 755.243 249.917 753.676 249.95C752.509 249.983 751.293 249.867 750.026 249.6C748.759 249.333 747.593 248.9 746.526 248.3C745.459 247.7 744.526 246.933 743.726 246C742.959 245.033 742.476 243.867 742.276 242.5C742.209 242 742.226 241.533 742.326 241.1C742.426 240.667 742.576 240.3 742.776 240C742.976 239.667 743.193 239.417 743.426 239.25C743.693 239.05 743.943 238.95 744.176 238.95C744.409 238.95 744.643 239.083 744.876 239.35C745.109 239.583 745.309 239.867 745.476 240.2C745.643 240.5 745.776 240.8 745.876 241.1C746.009 241.4 746.109 241.617 746.176 241.75C746.509 242.517 746.959 243.167 747.526 243.7C748.093 244.233 748.693 244.667 749.326 245C749.993 245.333 750.676 245.583 751.376 245.75C752.076 245.883 752.709 245.933 753.276 245.9C754.043 245.867 754.776 245.733 755.476 245.5C756.176 245.267 756.793 244.95 757.326 244.55C757.859 244.117 758.276 243.6 758.576 243C758.909 242.367 759.076 241.667 759.076 240.9C759.076 240.067 758.743 239.25 758.076 238.45C757.443 237.617 756.626 236.85 755.626 236.15C754.659 235.45 753.576 234.817 752.376 234.25C751.209 233.65 750.093 233.15 749.026 232.75C747.159 232.017 745.626 231.017 744.426 229.75C743.226 228.45 742.626 227 742.626 225.4ZM777.942 222.75C777.509 222.083 777.042 221.317 776.542 220.45C776.076 219.583 775.842 218.733 775.842 217.9C775.842 217.633 775.876 217.383 775.942 217.15C776.042 216.917 776.326 216.8 776.792 216.8C777.292 216.8 777.759 216.883 778.192 217.05C778.626 217.217 779.026 217.433 779.392 217.7C779.992 218.167 780.509 218.633 780.942 219.1C781.409 219.533 781.776 220.033 782.042 220.6C782.342 221.167 782.559 221.8 782.692 222.5C782.826 223.2 782.892 224 782.892 224.9C782.892 225.567 782.876 226.267 782.842 227C782.842 227.7 782.826 228.5 782.792 229.4C782.759 230.3 782.726 231.317 782.692 232.45C782.692 233.583 782.692 234.883 782.692 236.35C782.692 238.05 782.642 239.767 782.542 241.5C782.442 243.233 782.276 244.767 782.042 246.1C784.342 246.133 786.526 246.183 788.592 246.25C790.659 246.317 792.859 246.433 795.192 246.6C796.259 246.667 797.142 246.783 797.842 246.95C798.576 247.117 798.942 247.383 798.942 247.75C798.942 247.983 798.842 248.25 798.642 248.55C798.476 248.817 798.242 249.067 797.942 249.3C797.642 249.567 797.326 249.783 796.992 249.95C796.659 250.117 796.342 250.2 796.042 250.2C793.209 250.2 790.426 250.2 787.692 250.2C784.959 250.2 782.042 250.167 778.942 250.1C778.676 250.1 778.409 249.983 778.142 249.75C777.876 249.55 777.642 249.3 777.442 249C777.242 248.7 777.076 248.383 776.942 248.05C776.809 247.683 776.742 247.35 776.742 247.05C776.742 246.683 776.909 246.45 777.242 246.35C777.609 246.217 777.992 246.117 778.392 246.05C778.326 245.283 778.259 244.383 778.192 243.35C778.126 242.317 778.092 241.317 778.092 240.35C778.092 238.917 778.059 236.767 777.992 233.9C777.959 231.033 777.942 227.317 777.942 222.75ZM836.358 236.2C836.358 238.2 836.141 240.067 835.708 241.8C835.274 243.533 834.574 245.05 833.608 246.35C832.674 247.617 831.458 248.6 829.958 249.3C828.458 250.033 826.641 250.383 824.508 250.35C822.441 250.317 820.724 249.9 819.358 249.1C818.024 248.3 816.941 247.25 816.108 245.95C815.308 244.617 814.724 243.1 814.358 241.4C813.991 239.667 813.791 237.883 813.758 236.05C813.724 235.15 813.691 234.25 813.658 233.35C813.658 232.45 813.658 231.517 813.658 230.55C813.658 229.583 813.658 228.55 813.658 227.45C813.658 226.35 813.658 225.167 813.658 223.9C813.391 223.767 813.041 223.6 812.608 223.4C812.208 223.2 811.808 222.983 811.408 222.75C811.008 222.483 810.658 222.217 810.358 221.95C810.091 221.683 809.958 221.4 809.958 221.1C809.958 220.833 810.141 220.617 810.508 220.45C810.874 220.25 811.308 220.1 811.808 220C812.308 219.9 812.824 219.85 813.358 219.85C813.924 219.817 814.408 219.833 814.808 219.9C816.041 220.033 817.008 220.333 817.708 220.8C818.408 221.233 818.758 222.05 818.758 223.25C818.758 225.383 818.758 227.433 818.758 229.4C818.758 231.367 818.774 233.517 818.808 235.85C818.808 237.15 818.908 238.433 819.108 239.7C819.308 240.967 819.658 242.117 820.158 243.15C820.658 244.15 821.324 244.967 822.158 245.6C823.024 246.2 824.124 246.5 825.458 246.5C826.658 246.5 827.658 246.217 828.458 245.65C829.291 245.083 829.958 244.333 830.458 243.4C830.958 242.433 831.308 241.317 831.508 240.05C831.741 238.75 831.858 237.383 831.858 235.95C831.858 234.917 831.858 233.933 831.858 233C831.891 232.033 831.908 231.1 831.908 230.2C831.908 229.267 831.891 228.333 831.858 227.4C831.858 226.433 831.841 225.417 831.808 224.35C831.808 224.017 831.774 223.633 831.708 223.2C831.641 222.733 831.558 222.267 831.458 221.8C831.391 221.333 831.291 220.883 831.158 220.45C831.024 220.017 830.874 219.65 830.708 219.35C830.641 219.217 830.558 219.033 830.458 218.8C830.358 218.567 830.274 218.333 830.208 218.1C830.174 217.867 830.158 217.65 830.158 217.45C830.158 217.217 830.224 217.033 830.358 216.9C830.524 216.733 830.774 216.683 831.108 216.75C831.441 216.783 831.774 216.883 832.108 217.05C832.474 217.217 832.824 217.433 833.158 217.7C833.524 217.933 833.808 218.167 834.008 218.4C834.474 218.9 834.858 219.467 835.158 220.1C835.458 220.7 835.691 221.333 835.858 222C836.058 222.667 836.191 223.35 836.258 224.05C836.324 224.717 836.358 225.35 836.358 225.95V236.2ZM872.992 236.6C872.692 236.567 872.408 236.55 872.142 236.55C871.875 236.55 871.575 236.55 871.242 236.55C870.942 236.55 870.575 236.55 870.142 236.55C869.708 236.55 869.192 236.517 868.592 236.45C868.192 236.417 867.758 236.3 867.292 236.1C866.858 235.867 866.442 235.6 866.042 235.3C865.675 235 865.358 234.7 865.092 234.4C864.825 234.067 864.692 233.767 864.692 233.5C864.692 233.233 864.842 233.05 865.142 232.95C865.442 232.817 865.842 232.733 866.342 232.7C866.842 232.667 867.392 232.667 867.992 232.7C868.625 232.7 869.242 232.7 869.842 232.7L876.892 232.85C877.758 232.883 878.592 232.983 879.392 233.15C880.192 233.283 880.608 233.583 880.642 234.05C880.642 234.283 880.542 234.533 880.342 234.8C880.142 235.033 879.875 235.267 879.542 235.5C879.242 235.733 878.892 235.933 878.492 236.1C878.125 236.267 877.758 236.367 877.392 236.4V245.2C877.392 245.933 877.275 246.65 877.042 247.35C876.842 248.017 876.575 248.6 876.242 249.1C875.908 249.633 875.558 250.05 875.192 250.35C874.858 250.65 874.558 250.8 874.292 250.8C874.125 250.8 873.892 250.7 873.592 250.5C873.292 250.3 873.092 250.067 872.992 249.8C873.192 249.3 873.325 248.7 873.392 248C873.458 247.267 873.475 246.517 873.442 245.75C871.842 247.183 870.258 248.167 868.692 248.7C867.125 249.2 865.592 249.433 864.092 249.4C862.358 249.367 860.708 248.967 859.142 248.2C857.575 247.4 856.192 246.317 854.992 244.95C853.792 243.583 852.842 241.967 852.142 240.1C851.442 238.2 851.092 236.133 851.092 233.9C851.092 231 851.492 228.433 852.292 226.2C853.092 223.933 854.175 222.033 855.542 220.5C856.942 218.933 858.542 217.75 860.342 216.95C862.142 216.15 864.042 215.75 866.042 215.75C867.008 215.75 867.992 215.867 868.992 216.1C869.992 216.333 870.892 216.617 871.692 216.95C872.525 217.25 873.192 217.6 873.692 218C874.225 218.367 874.492 218.7 874.492 219C874.492 219.333 874.208 219.667 873.642 220C873.075 220.333 872.408 220.5 871.642 220.5C871.275 220.5 870.908 220.467 870.542 220.4C870.208 220.333 869.842 220.25 869.442 220.15C869.042 220.05 868.592 219.967 868.092 219.9C867.592 219.833 867.008 219.8 866.342 219.8C864.842 219.8 863.475 220.1 862.242 220.7C861.008 221.267 859.942 222.1 859.042 223.2C858.175 224.267 857.492 225.583 856.992 227.15C856.492 228.717 856.242 230.483 856.242 232.45C856.242 234.117 856.442 235.667 856.842 237.1C857.275 238.5 857.842 239.75 858.542 240.85C859.242 241.917 860.058 242.8 860.992 243.5C861.958 244.2 862.975 244.633 864.042 244.8C864.675 244.9 865.392 244.933 866.192 244.9C867.025 244.833 867.858 244.667 868.692 244.4C869.525 244.1 870.308 243.7 871.042 243.2C871.808 242.667 872.458 241.983 872.992 241.15V236.6ZM899.726 231.55C901.393 231.417 903.01 231.3 904.576 231.2C906.176 231.1 907.776 231.033 909.376 231C910.31 230.967 911.01 231.083 911.476 231.35C911.943 231.583 912.193 231.783 912.226 231.95C912.26 232.217 912.193 232.55 912.026 232.95C911.893 233.35 911.676 233.75 911.376 234.15C911.076 234.55 910.726 234.9 910.326 235.2C909.926 235.467 909.51 235.6 909.076 235.6C907.576 235.6 905.993 235.583 904.326 235.55C902.693 235.483 901.126 235.417 899.626 235.35C899.66 237.15 899.576 238.967 899.376 240.8C899.21 242.6 898.993 244.05 898.726 245.15C899.26 245.217 900.11 245.283 901.276 245.35C902.443 245.417 903.926 245.45 905.726 245.45C907.393 245.45 908.876 245.367 910.176 245.2C911.476 245 912.66 244.8 913.726 244.6C913.926 244.8 914.01 245.067 913.976 245.4C913.976 245.733 913.91 246.083 913.776 246.45C913.643 246.783 913.476 247.1 913.276 247.4C913.076 247.667 912.893 247.85 912.726 247.95C912.26 248.217 911.343 248.533 909.976 248.9C908.61 249.233 906.993 249.433 905.126 249.5C904.46 249.533 903.743 249.533 902.976 249.5C902.243 249.5 901.526 249.467 900.826 249.4C900.126 249.367 899.476 249.3 898.876 249.2C898.31 249.133 897.876 249.067 897.576 249C897.443 249.2 897.26 249.4 897.026 249.6C896.793 249.8 896.526 249.967 896.226 250.1C895.96 250.267 895.66 250.383 895.326 250.45C895.026 250.517 894.743 250.5 894.476 250.4C894.243 250.3 894.093 250.133 894.026 249.9C893.993 249.667 893.993 249.383 894.026 249.05C894.06 248.75 894.11 248.417 894.176 248.05C894.276 247.683 894.36 247.317 894.426 246.95C894.726 244.717 894.91 242.483 894.976 240.25C895.076 238.017 895.126 235.833 895.126 233.7C895.126 231.567 895.093 229.5 895.026 227.5C894.96 225.5 894.91 223.6 894.876 221.8C894.176 221.533 893.56 221.2 893.026 220.8C892.493 220.367 892.11 219.833 891.876 219.2C891.81 219 891.826 218.8 891.926 218.6C892.026 218.4 892.16 218.233 892.326 218.1C892.526 217.933 892.726 217.817 892.926 217.75C893.126 217.65 893.276 217.617 893.376 217.65C894.576 218.15 895.926 218.4 897.426 218.4C899.76 218.367 901.926 218.25 903.926 218.05C905.96 217.817 908.093 217.6 910.326 217.4C910.56 217.367 910.843 217.383 911.176 217.45C911.543 217.483 911.876 217.55 912.176 217.65C912.51 217.75 912.776 217.883 912.976 218.05C913.21 218.183 913.326 218.35 913.326 218.55C913.326 218.817 913.226 219.117 913.026 219.45C912.826 219.783 912.576 220.117 912.276 220.45C911.976 220.75 911.626 221.033 911.226 221.3C910.86 221.533 910.51 221.683 910.176 221.75C908.376 221.917 906.643 222.033 904.976 222.1C903.343 222.133 901.56 222.15 899.626 222.15L899.726 231.55Z" fill="#89664C"/>
<path d="M335 181L989.406 179.849" stroke="#3F2E29" stroke-width="10"/>
<g clip-path="url(#clip0_8_45)">
<path d="M25.3131 170.263L229.224 242.406V200.756L25.3131 128.613V170.263Z" fill="#594640"/>
<path d="M229.224 242.406L300.007 192.947V151.297L229.224 200.756V242.406Z" fill="#3F2E29"/>
<path d="M0 115.597L25.3131 170.263V128.613L0 73.9469V115.597Z" fill="#6D5650"/>
<path d="M0 73.9469L25.3131 128.613L229.224 200.756L300.007 151.297L150.003 59.4438L61.4077 41.5938L0 73.9469Z" fill="#89664C"/>
<path d="M9.84396 72.0875L33.7508 122.291L228.286 192.575L291.569 150.181L148.128 61.3032L61.4076 44.1969L9.84396 72.0875Z" fill="#DBB471"/>
<path d="M68.9078 70.6L54.3763 78.0375L79.6893 89.9375L56.2513 102.581L70.3141 109.275L95.1584 96.6312L201.567 141.256L214.224 132.703L109.69 88.0781L133.128 75.4344L119.534 68.7406L93.7521 81.3843L68.9078 70.6Z" fill="#89664C"/>
<path d="M248.912 107.787C234.849 115.225 219.849 121.175 202.973 124.522C194.536 126.009 186.098 127.125 177.66 127.125C173.441 127.125 169.223 127.125 164.535 126.753C162.191 126.381 160.316 126.381 157.972 126.009C157.035 126.009 155.629 125.637 154.691 125.266C153.754 124.894 152.816 124.894 151.41 124.522L153.754 119.316C154.222 119.687 155.629 119.687 156.566 120.059C157.504 120.431 158.441 120.431 159.379 120.803C161.254 121.175 163.129 121.547 165.473 121.919C169.223 122.662 173.441 123.034 177.66 123.034C185.629 123.406 194.067 123.034 202.036 121.919C218.911 119.316 234.38 114.481 248.912 107.787Z" fill="#75A843"/>
<path d="M209.067 113.738C208.13 122.663 198.755 123.778 198.755 123.778C198.755 123.778 188.911 120.059 190.317 111.134C191.254 105.184 201.567 96.2594 201.567 96.2594C201.567 96.2594 210.005 107.788 209.067 113.738Z" fill="#83BF4F"/>
<path d="M238.599 102.209C228.286 110.391 222.661 114.109 225.943 120.803C229.224 127.497 256.412 130.844 258.287 118.572C260.162 106.3 270.006 103.697 270.006 103.697C270.006 103.697 255.475 88.8219 238.599 102.209Z" fill="#871212"/>
<path d="M246.568 123.778C232.037 122.662 225.005 124.522 221.255 117.828C217.974 111.134 239.537 88.8218 249.849 98.4906C262.037 110.391 270.475 111.878 270.475 111.878C270.475 111.878 268.131 125.266 246.568 123.778Z" fill="#991D1D"/>
<path d="M257.818 121.175C262.975 119.316 257.818 99.9781 264.381 94.0281C264.381 94.0281 252.193 88.0781 246.099 94.0281C242.349 97.375 240.474 126.753 257.818 121.175Z" fill="#991D1D"/>
<path d="M248.443 112.994C237.193 129.728 224.068 127.125 219.38 118.2C214.692 109.275 220.318 95.8875 234.38 94.0281C248.443 92.1688 256.881 85.1031 256.881 85.1031C256.881 85.1031 256.881 99.9781 248.443 112.994Z" fill="#AD2727"/>
<path d="M244.224 102.209C222.193 94.7719 214.692 109.647 219.38 118.572C224.068 127.497 238.13 131.216 250.787 127.125C263.444 122.663 272.819 123.034 272.819 123.034C272.819 123.034 260.162 107.416 244.224 102.209Z" fill="#CC3636"/>
<path d="M225.005 117.084C232.505 130.844 222.661 127.125 217.974 118.2C206.723 95.8875 231.099 88.8219 231.099 88.8219C231.099 88.8219 218.442 104.813 225.005 117.084Z" fill="#75A843"/>
<path d="M225.005 117.084C221.255 114.109 213.755 105.184 216.099 114.481C220.786 133.447 251.724 131.216 251.724 131.216C251.724 131.216 236.255 126.381 225.005 117.084Z" fill="#83BF4F"/>
<path d="M249.381 143.859C232.974 140.512 217.505 135.306 203.442 127.497C196.411 123.778 189.848 118.944 184.223 114.109C181.41 111.506 178.598 108.903 176.254 105.928C174.848 104.441 173.91 102.953 172.504 101.466L171.098 99.2344C170.629 98.4906 170.16 97.7469 169.691 96.6312L176.254 94.7719C176.723 95.5156 176.723 96.2594 177.192 97.0031L178.598 99.2344C179.535 100.722 180.473 102.209 181.41 103.325C183.754 106.3 186.098 108.903 188.442 111.506C193.598 116.712 199.692 121.175 205.786 125.637C218.442 133.447 233.443 139.769 249.381 143.859Z" fill="#75A843"/>
<path d="M247.506 133.819C232.974 133.075 225.943 131.959 221.724 138.653C217.974 145.347 232.974 163.941 245.631 156.503C257.818 149.438 267.194 153.528 267.194 153.528C267.194 153.528 270.944 135.306 247.506 133.819Z" fill="#871212"/>
<path d="M232.974 153.156C224.068 143.859 217.505 140.513 221.724 133.819C225.474 127.125 260.631 125.638 258.756 137.909C255.943 153.528 260.162 159.106 260.162 159.106C260.162 159.106 246.099 167.288 232.974 153.156Z" fill="#991D1D"/>
<path d="M242.818 157.991C247.974 159.85 262.506 143.859 271.881 143.859C271.881 143.859 269.537 132.331 259.693 132.703C254.537 133.075 226.411 151.669 242.818 157.991Z" fill="#AD2727"/>
<path d="M244.224 146.834C221.255 151.297 214.692 141.628 219.849 132.703C225.005 123.778 240.943 118.2 251.724 125.637C262.506 132.703 275.163 133.447 275.163 133.447C275.163 133.447 261.568 143.487 244.224 146.834Z" fill="#E24B4B"/>
<path d="M251.256 137.538C243.287 119.316 224.536 124.522 219.38 133.447C214.224 142.372 220.318 153.156 232.505 157.991C245.162 162.825 251.256 168.403 251.256 168.403C251.256 168.403 256.881 150.553 251.256 137.538Z" fill="#F25151"/>
<path d="M224.536 135.678C216.567 149.437 213.755 140.884 218.911 131.959C231.568 110.391 254.537 120.059 254.537 120.059C254.537 120.059 231.568 123.778 224.536 135.678Z" fill="#75A843"/>
<path d="M224.536 135.678C225.005 131.216 227.818 120.803 220.786 128.612C206.723 143.859 229.224 161.337 229.224 161.337C229.224 161.337 223.599 148.694 224.536 135.678Z" fill="#83BF4F"/>
<path d="M28.1256 158.734L223.599 227.903V220.466L28.1256 151.297V158.734Z" fill="#B7925E"/>
<path d="M39.3759 172.122L51.0949 176.213V147.95L39.3759 143.488V172.122Z" fill="#DBB471"/>
<path d="M51.0949 176.213L57.1888 173.609V169.891L54.3762 168.775V163.569L57.1888 162.453V145.347L51.0949 147.95V176.213Z" fill="#3F2E29"/>
<path d="M39.3759 143.487L51.0949 147.95L57.1888 145.347L45.001 141.256L39.3759 143.487Z" fill="#89664C"/>
<path d="M198.755 227.531L210.474 231.994V203.731L198.755 199.269V227.531Z" fill="#DBB471"/>
<path d="M210.474 231.994L216.567 229.019V225.3L213.755 224.184V218.978L216.567 217.862V200.756L210.474 203.731V231.994Z" fill="#3F2E29"/>
<path d="M198.755 199.269L210.474 203.731L216.567 200.756L204.38 196.666L198.755 199.269Z" fill="#89664C"/>
</g>
<defs>
<clipPath id="clip0_8_45">
<rect width="300.007" height="238" fill="white" transform="translate(0 23)"/>
</clipPath>
</defs>
</svg>
