<?xml version="1.0" standalone="no"?>
<!DOCTYPE svg PUBLIC "-//W3C//DTD SVG 20010904//EN"
 "http://www.w3.org/TR/2001/REC-SVG-20010904/DTD/svg10.dtd">
<svg version="1.0" xmlns="http://www.w3.org/2000/svg"
 width="1140.000000pt" height="1140.000000pt" viewBox="0 0 1140.000000 1140.000000"
 preserveAspectRatio="xMidYMid meet">
<metadata>
Created by potrace 1.14, written by Peter Selinger 2001-2017
</metadata>
<g transform="translate(0.000000,1140.000000) scale(0.100000,-0.100000)"
fill="#000000" stroke="none">
<path d="M2318 9707 c-8 -7 -20 -13 -28 -15 -7 -2 -40 -19 -72 -38 -33 -19
-63 -34 -69 -34 -5 0 -9 -5 -9 -11 0 -5 -4 -7 -10 -4 -5 3 -10 1 -10 -5 0 -6
-4 -8 -10 -5 -5 3 -10 3 -10 -2 0 -4 -10 -13 -23 -19 -47 -23 -132 -69 -137
-74 -3 -3 -30 -18 -60 -34 -88 -47 -95 -51 -100 -56 -3 -3 -27 -16 -55 -30
-27 -14 -56 -31 -63 -37 -12 -12 -20 -14 -38 -12 -3 0 -13 -8 -22 -18 -9 -10
-23 -19 -31 -21 -8 -2 -41 -19 -73 -38 -33 -19 -63 -34 -68 -34 -4 0 -10 -3
-12 -8 -3 -7 -45 -31 -148 -84 -25 -13 -47 -25 -50 -28 -7 -7 -97 -57 -150
-83 -25 -12 -47 -24 -50 -27 -3 -3 -14 -10 -25 -16 -11 -6 -45 -25 -75 -41
-30 -17 -74 -41 -98 -53 -23 -12 -45 -26 -48 -31 -3 -5 -14 -9 -25 -9 -10 0
-19 -4 -19 -9 0 -4 -35 -25 -77 -47 -43 -21 -84 -44 -91 -51 -7 -7 -19 -13
-27 -13 -7 0 -15 -3 -17 -7 -1 -5 -25 -20 -53 -34 -46 -24 -179 -98 -215 -119
-80 -47 -234 -130 -241 -130 -6 0 -8 -338 -7 -847 l3 -848 29 -60 c15 -33 34
-73 41 -90 7 -16 24 -55 38 -85 13 -30 48 -109 77 -175 28 -66 65 -149 82
-185 17 -36 31 -69 33 -75 3 -14 34 -85 105 -240 13 -27 23 -56 23 -62 0 -7 4
-13 9 -13 4 0 8 -4 8 -10 0 -11 113 -272 134 -310 8 -14 15 -29 16 -35 1 -5
12 -34 26 -62 13 -29 26 -64 30 -77 3 -14 12 -30 20 -37 8 -6 14 -18 14 -25 0
-8 4 -22 9 -32 22 -40 45 -98 43 -104 -1 -5 3 -8 10 -8 6 0 9 -3 6 -6 -5 -5
12 -48 88 -212 13 -29 24 -55 24 -57 0 -3 14 -35 31 -72 17 -38 37 -82 45 -99
12 -27 25 -39 54 -49 3 -1 12 -5 20 -8 8 -3 96 -36 195 -72 99 -36 189 -70
200 -75 11 -4 47 -18 80 -30 33 -12 69 -26 80 -32 12 -5 27 -10 35 -12 8 -2
28 -8 43 -14 16 -7 31 -12 35 -12 4 -1 25 -9 47 -20 22 -11 44 -19 48 -20 5 0
70 -23 145 -52 132 -49 241 -90 347 -128 28 -10 111 -42 185 -70 74 -29 159
-59 188 -67 28 -9 52 -20 52 -24 0 -5 9 -9 20 -9 11 0 39 -8 63 -19 36 -16
163 -64 177 -67 3 0 19 -6 35 -13 17 -7 50 -19 75 -27 25 -8 54 -19 65 -24 26
-12 207 -80 220 -83 6 -2 15 -5 20 -8 8 -5 77 -30 95 -34 3 -1 18 -7 33 -13
16 -7 30 -12 32 -12 2 0 16 -5 32 -12 15 -6 30 -12 33 -12 9 -3 155 -57 175
-66 11 -5 144 -55 295 -111 151 -56 289 -108 306 -116 17 -8 41 -15 53 -16 11
-1 21 -5 21 -9 0 -4 3 -7 8 -6 7 1 27 -5 67 -22 11 -5 83 -31 160 -59 77 -28
148 -56 157 -61 10 -6 26 -10 36 -10 10 0 22 -4 27 -9 6 -5 42 -20 80 -34 179
-63 230 -82 235 -87 3 -3 12 -6 20 -8 14 -3 84 -29 155 -57 17 -7 59 -22 95
-35 36 -13 71 -28 78 -33 6 -5 12 -7 12 -3 0 4 13 0 30 -9 16 -8 32 -15 35
-15 3 0 21 -7 41 -15 20 -8 39 -15 43 -15 5 0 115 -41 176 -65 11 -5 22 -9 25
-10 14 -5 53 -19 135 -50 50 -19 117 -44 150 -55 33 -12 69 -25 80 -30 11 -5
63 -25 115 -44 52 -19 109 -40 125 -47 17 -7 35 -13 42 -15 11 -2 155 -55 198
-73 11 -5 47 -18 80 -31 33 -12 69 -26 80 -30 11 -5 40 -16 65 -24 70 -22 233
-85 252 -96 10 -5 25 -10 33 -10 8 0 23 -4 33 -9 9 -5 55 -24 102 -41 47 -18
110 -42 140 -53 30 -12 58 -22 63 -23 4 -1 9 -3 12 -4 3 -1 10 -4 15 -5 6 -1
12 -4 15 -5 3 -1 8 -3 13 -5 4 -1 21 -8 37 -15 17 -7 35 -14 42 -16 6 -1 49
-16 95 -34 45 -18 112 -43 148 -57 36 -14 70 -26 75 -28 6 -1 21 -7 35 -12 14
-6 54 -20 90 -33 36 -12 77 -29 92 -37 15 -7 30 -13 33 -13 3 -1 12 -3 20 -5
8 -3 22 -7 30 -10 8 -2 19 -5 23 -6 4 -1 23 -9 42 -19 19 -10 40 -18 45 -19
18 -2 100 -34 110 -43 5 -4 19 -8 31 -8 13 0 26 -5 29 -10 9 -15 52 -12 69 5
8 8 19 15 25 15 5 0 14 6 18 13 4 6 28 26 53 42 47 31 73 52 95 72 8 7 16 13
19 13 6 0 37 24 62 48 8 7 14 10 14 6 0 -4 9 2 20 14 12 12 24 22 28 22 4 0
19 10 34 23 27 23 396 296 448 332 16 11 145 106 285 210 141 105 269 199 285
210 79 54 286 210 296 222 6 7 14 13 18 13 4 0 41 26 83 57 80 62 114 87 159
118 26 18 175 128 199 147 48 40 178 128 187 128 6 0 8 3 5 6 -4 4 15 20 41
37 26 16 49 33 52 38 3 4 31 25 61 46 54 37 98 69 141 105 12 10 24 18 27 18
4 0 5 1295 1 1636 0 35 8 29 -238 188 -73 47 -137 86 -143 86 -5 0 -9 3 -9 8
0 7 -46 36 -63 40 -4 1 -19 13 -34 26 -15 14 -30 23 -33 21 -4 -3 -15 4 -25
15 -10 11 -22 20 -26 20 -4 0 -34 17 -66 39 -32 21 -92 60 -133 87 -41 27 -76
52 -78 57 -2 4 -8 7 -13 7 -12 0 -149 91 -149 99 0 3 13 15 30 26 37 25 29 33
-38 36 -29 2 -55 6 -58 11 -3 5 -9 6 -14 3 -18 -11 -88 24 -210 103 -69 44
-129 85 -135 89 -5 4 -22 14 -37 22 -15 8 -36 21 -45 30 -10 9 -30 22 -45 30
-16 8 -28 18 -28 23 0 4 -8 8 -17 9 -19 1 25 16 67 23 14 2 25 5 25 6 0 3 28
8 70 14 17 2 30 5 30 6 0 4 112 21 160 24 17 1 35 4 40 6 6 3 47 5 93 5 57 0
82 4 80 11 -3 13 -58 80 -135 162 l-51 56 28 42 c35 50 82 154 77 168 -3 6
-22 17 -43 25 -22 7 -67 26 -101 42 -34 16 -67 29 -73 29 -5 0 -10 4 -10 9 0
5 -14 14 -30 21 -16 7 -30 14 -30 16 0 21 161 154 186 154 8 0 14 4 14 9 0 5
14 12 30 16 50 11 42 23 -67 115 -7 5 -17 10 -23 10 -5 0 -10 5 -10 10 0 6 -7
10 -15 10 -7 0 -18 6 -22 13 -4 7 -34 25 -65 40 -32 15 -58 33 -58 41 0 23 39
103 65 134 l24 29 -43 21 c-24 12 -50 22 -58 22 -8 0 -18 3 -22 8 -4 4 -11 7
-14 8 -4 0 -14 3 -22 6 -23 9 -62 19 -100 25 -33 5 -53 20 -45 33 1 3 6 39 10
80 4 41 8 87 10 101 5 38 -8 54 -28 35 -45 -46 -347 -220 -347 -200 0 3 -6 2
-13 -3 -10 -8 -38 -20 -142 -59 -11 -4 -24 -8 -30 -9 -5 -2 -34 -10 -62 -18
-29 -9 -53 -14 -53 -11 0 3 -8 0 -18 -5 -10 -5 -36 -12 -58 -15 -81 -12 -102
-16 -150 -26 -27 -7 -56 -13 -64 -15 -35 -8 -107 -37 -147 -60 -24 -13 -43
-22 -43 -19 0 11 73 150 82 155 5 3 8 8 7 10 -4 6 50 96 66 109 17 14 20 30 5
30 -17 0 -172 -76 -213 -104 -21 -14 -40 -26 -42 -26 -26 0 -199 -181 -242
-253 l-40 -67 -26 20 c-14 11 -30 20 -36 20 -6 0 -11 4 -11 8 0 5 -10 14 -22
21 -35 18 -55 31 -178 112 -63 41 -123 78 -132 82 -10 3 -18 11 -18 17 0 6 -4
8 -10 5 -5 -3 -10 -1 -10 4 0 6 -7 11 -15 11 -8 0 -15 5 -15 10 0 6 -5 10 -11
10 -6 0 -25 11 -43 25 -18 14 -35 25 -38 25 -3 0 -42 25 -87 55 -45 30 -84 55
-87 55 -2 0 -10 5 -17 11 -16 14 -408 268 -427 276 -8 4 -17 9 -20 13 -3 3
-54 37 -115 75 -60 38 -111 73 -113 77 -2 5 -8 8 -13 8 -5 0 -31 15 -57 33
-26 18 -76 51 -111 73 -35 21 -75 47 -90 56 -14 10 -36 23 -48 29 -13 7 -23
16 -23 21 0 4 -4 8 -10 8 -5 0 -62 35 -127 77 -65 42 -175 114 -246 160 -70
46 -130 83 -133 83 -2 0 -14 9 -26 20 -12 11 -28 20 -35 20 -7 0 -13 5 -13 12
0 6 -3 9 -6 5 -4 -3 -12 -1 -20 6 -30 27 -43 37 -49 37 -4 0 -25 12 -48 28
-23 15 -47 28 -53 29 -39 7 -64 12 -103 22 -25 5 -48 8 -52 5 -4 -2 -10 0 -13
5 -5 8 -39 16 -126 28 -19 3 -40 9 -46 14 -6 5 -13 7 -15 4 -3 -2 -33 2 -66
10 -34 8 -76 17 -93 20 -16 3 -58 12 -92 20 -35 8 -78 17 -97 20 -19 3 -37 8
-40 10 -4 2 -26 6 -51 10 -25 4 -47 8 -51 11 -3 2 -21 6 -40 9 -19 2 -97 19
-174 36 -77 16 -147 32 -155 34 -63 13 -230 48 -250 51 -14 3 -33 7 -42 10
-27 8 -61 15 -103 20 -22 3 -45 10 -53 16 -7 6 -15 8 -18 5 -3 -3 -31 1 -63 9
-67 15 -74 17 -206 45 -55 12 -109 23 -120 24 -11 2 -20 4 -20 5 0 1 -9 3 -20
5 -23 4 -47 9 -170 36 -49 11 -106 22 -125 25 -19 3 -38 8 -41 10 -3 2 -19 5
-35 8 -16 3 -51 10 -79 16 -27 6 -61 13 -75 15 -14 3 -36 8 -50 12 -14 3 -27
7 -30 8 -13 3 -100 16 -102 15 -2 -1 -15 3 -30 9 -15 6 -49 13 -75 17 -27 3
-52 9 -58 12 -5 4 -21 8 -34 10 -13 2 -76 14 -140 28 -64 14 -127 27 -141 30
-14 2 -30 7 -37 9 -7 2 -18 -1 -25 -8z"/>
</g>
</svg>
